<?xml version="1.0" encoding="utf-8"?>
<!-- Generator: Adobe Illustrator 25.0.1, SVG Export Plug-In . SVG Version: 6.00 Build 0)  -->
<svg version="1.1" id="Layer_1" xmlns="http://www.w3.org/2000/svg" xmlns:xlink="http://www.w3.org/1999/xlink" x="0px" y="0px"
	 viewBox="0 0 1933 403.6" style="enable-background:new 0 0 1933 403.6;" xml:space="preserve">
<style type="text/css">
	.st0{fill:#51504B;}
	.st1{fill:#029E9D;}
	.st2{fill:#FEFEFE;}
	.st3{fill:#FDBE01;}
</style>
<g id="_x23_51504bfe">
	<path class="st0" d="M270.3,10.2C270.8,10.8,270.8,10.8,270.3,10.2z"/>
	<path class="st0" d="M290.4,10c4.8,0,9.7-0.1,14.5,0c0.4,0.2,1.2,0.6,1.6,0.8c0.4,0,1.2,0,1.6,0l0.6,0c3.7,0.2,7.7-0.4,11.1,1.5
		c0.9,0.6,1.9,0.9,3,0.7c1.9-0.2,3.8-0.1,5.2,1.2c0.8,0.7,1.8,1,2.8,0.8l1.1,0c0.5,0.2,1.4,0.7,1.9,0.9l0.5,0.3
		c1.3,0.9,2.8,1.6,4.5,1.6c3.6,0.2,6.5,2.9,9.8,4.2c0.4,0.3,1.1,0.8,1.5,1c0.1,0.1,0.2,0.2,0.3,0.2c1,0.7,2.2,1.3,3.3,1.7
		c0.4,0.4,1.1,1.3,1.5,1.8c5.1,0.1,10-1.6,15.1-1.1c2.3-1.8,5.6-0.5,8.3-1c9.1-0.5,18.1-0.5,27.2,0c0.8,0.1,2.4,0.4,3.2,0.5
		c2.2,0.8,4.5,1.3,6.8,0.7c4,0.1,7.9,1.5,12,0.9l0.1,0.9c6.1-0.2,11.8,2.2,17.7,3.3c1.8,0.6,3.8,0.8,5.3,2c0.5,0.2,1.5,0.5,2,0.7
		l1.1,0.2c0.5,0.2,1.5,0.7,1.9,0.9l1.1,0.2c0.5,0.2,1.4,0.7,1.9,0.9c1.7-0.2,3.2,0.7,4.7,1.2c2.7,1.3,5.9,3.2,8.6,0.7l-1.5,1.8
		c1.1,0.9,2.4,1.4,3.8,1.6c0.8,0.7,1.7,1.4,2.6,2.1c0.1,0,0.2,0.1,0.3,0.2l1.7,0.9l0.2,0.1l0.2,0.1l1.5,0.8l0.2,0.1l0.3,0.1l1.7,0.7
		c0.1,0,0.2,0.1,0.2,0.1l1.8,0.8c0.1,0,0.2,0.2,0.3,0.2l1.4,0.9l0.3,0.2l0.3,0.1l1.6,0.7c0.1,0,0.2,0.1,0.2,0.1l1.1,0.6
		c1.1,0.8,2.3,1.6,3.5,2.3l0.3,0.2l0.3,0.1c0.7,0.4,2,1.2,2.7,1.6l0.2,0.1l0.2,0.1c3.1,1.7,5.9,4,8.6,6.3c1.1,0.4,2.2,0.9,3.3,1.3
		c2.3,3.2,6,4.7,9,7.1c5.6,5.8,12.4,10.2,17.2,16.8c3,4.2,7.3,7,10.3,11.1c4.6,5.9,9.5,11.7,13.1,18.2l0.1,0.3l0.2,0.3
		c1.1,1.4,2,2.9,3,4.4c1.8,3.4,4,6.7,5.6,10.2c0.2,0.5,0.7,1.5,1,2.1c0.3,0.5,0.9,1.5,1.1,1.9c0.3,1,0.5,2,0.8,3.1
		c0.5,0.9,0.9,1.9,1.4,2.8c0.6,1,1.3,2,2,3c0.2,0.7,0.5,2,0.7,2.7c0.1,0.2,0.3,0.5,0.4,0.6l0.8,1.6c0,0.1,0.1,0.2,0.1,0.2
		c0.6,1.3,1.1,2.6,1.7,3.9c0.4,1.2,0.7,2.5,1.1,3.7c0,0.1,0.1,0.4,0.2,0.5c0.2,0.6,0.7,1.9,0.9,2.5c0,0.1,0.1,0.2,0.1,0.3
		c0.2,0.5,0.5,1.5,0.7,2c0.5,1.3,1,2.6,1.5,3.9c0.6,2.4,1.2,4.7,1.5,7.2c0.5,1.3,1,2.6,1.6,3.9c0.3,1.7-0.3,3.7,1,5
		c0.1,6.5,2.1,12.7,2.4,19.1c1.5,4.9-0.3,10.3,1.4,15.1c0.2,4.8,0.2,9.6,0.3,14.4c-0.3,0.5-1,1.4-1.3,1.8l1.5,0.1
		c0,1.3-0.3,2.5-1.1,3.6c-0.2,3,0,6-0.1,8.9c-1.7,1.9-0.7,4.7-1,7c-1.6,2-0.7,4.7-1,7c-1.3,1.3-0.8,3.3-1.1,5
		c-0.8,1.2-0.8,2.6-1.1,4c-0.6,1.2-0.8,2.6-1,4c-0.9,1.5-0.7,3.3-0.8,5c-1.3,2.2-1.7,4.7-2.7,7c-0.1,0.5-0.3,1.5-0.4,2
		c-1,1.9-1.6,4-2,6.1c-1,1.9-1.7,3.8-2.5,5.8c-0.7,1.6-1.3,3.3-1.9,5c-1.4,2.6-2.7,5.3-4.1,8c-0.4,1.4-0.9,2.9-1.4,4.3
		c-0.9,1.2-1.8,2.5-2.6,3.7c-1.2,2.4-2.5,4.8-4,7c-7.2,12.9-16.3,24.6-26.5,35.2c0,0-0.1,0.1-0.2,0.2c-1.6,1.7-3.2,3.3-5.1,4.7
		c-4.4,3.1-7.5,7.6-11.7,10.9c0.7,0.9,1.4,1.7,2.1,2.6c-142.3,0.2-284.6,0.1-427,0.1l0.8-0.9c6.6-7.6,13.4-15.1,20.2-22.5
		c-1.1-1.5-2.1-3-3.2-4.5c-8,5.9-16.5,11.2-23.2,18.6c-2.2,2.2-3.3,5.3-2.1,8.4c-3.1,0-6.1,0-9.2,0c-3.8-3.6-8.2-6.5-11.5-10.7
		c-2.2-2.5-4.5-4.8-7-7c-5.8-4.7-9.7-11-14.5-16.6c-2.6-3.7-5.3-7.4-7.8-11.1c-0.1-0.1-0.2-0.2-0.2-0.3c-0.3-0.4-0.8-1.2-1.1-1.5
		c-0.5-1-1.1-2-1.6-3l-0.1-0.2l-0.2-0.2c-0.4-0.6-1.3-1.9-1.7-2.6l-0.1-0.3l-0.2-0.2l-0.9-1.5c0-0.1-0.1-0.2-0.1-0.2
		c-0.9-1.7-1.9-3.4-3.2-4.8c-0.1-0.5-0.3-1.4-0.4-1.8l-0.1-0.5l-0.4-0.3l-0.9-1.4c0-0.1-0.1-0.2-0.1-0.2l-0.7-1.7l-0.1-0.3l-0.2-0.2
		l-0.9-1.6c0-0.1-0.1-0.2-0.1-0.2l-0.6-1.7l-0.1-0.3l-0.2-0.3c-0.8-1.1-1.5-2.3-2.2-3.4c-0.1-0.7-0.3-2.2-0.4-2.9l0-0.4l-0.3-0.3
		c-0.9-1.1-1.6-2.2-2.4-3.4c0-0.6,0.1-2,0.1-2.6c-0.2-0.5-0.6-1.5-0.8-2c-0.7-0.8-1.3-1.7-1.8-2.6c-0.4-1.3-0.8-2.6-1.3-3.9
		c-0.2-1.4-0.4-2.8-0.9-4.2c-0.3-1-0.6-1.9-1-2.8c-0.5-2.2-1.5-4.4-1.2-6.7c0.2-1.1,0-2.1-0.7-3c-0.3-0.5-0.9-1.6-1.2-2.2
		c-0.3-5.4-2.8-10.5-2-15.9c0.3-2,0-4-0.7-5.8c-0.4-1.2-0.9-2.3-1.3-3.4c0-12.5,0-24.9,0-37.4c0.5-1.1,0.9-2.3,1.3-3.4
		c0.7-1.9,1-3.9,0.7-5.8c-0.8-5.3,1.6-10.4,2.1-15.7c0.9-2.7,1.4-5.4,1.9-8.2c0.3-0.6,1-1.7,1.3-2.2c0.2-0.5,0.5-1.5,0.7-2
		c0-0.6-0.1-1.9-0.1-2.6c0.4-1,0.9-2.1,1.3-3.1c0.9-2.5,1.2-5.3,3-7.4c0.2-0.5,0.5-1.5,0.7-2c-0.2-1.9,1-3.7,1.6-5.4
		c1-2.7,2.3-5.2,3.6-7.8c0-0.1,0.1-0.2,0.1-0.3l0.8-1.8c0.1-0.1,0.2-0.3,0.2-0.4l0.9-1.6l0.1-0.2l0.1-0.3l0.7-1.7
		c0-0.1,0.1-0.2,0.1-0.2l0.8-1.7c0-0.1,0.1-0.2,0.1-0.2l1-1.6l0.1-0.2l0.1-0.2c0.8-1.6,1.7-3.2,2.7-4.8c0-0.1,0.1-0.2,0.1-0.2l1-1.5
		l0.2-0.2l0.1-0.2c0.4-0.7,1.2-2.1,1.7-2.8c0-0.1,0.1-0.2,0.1-0.2c1.6-2.6,3-5.2,5-7.4l0.2-0.2l0.1-0.3c3.8-7.1,9.7-12.8,14.6-19.1
		c9.9-10.4,20.1-20.7,32-28.9c0.1,0,0.1-0.1,0.2-0.1c2.6-2,5.4-3.8,8.2-5.5c2.2-1.6,4.4-3,6.7-4.4c0,0,0.1-0.1,0.2-0.1
		c1-0.5,2-1,3-1.5c1.3-0.6,2.5-1.4,3.7-2.2c0.1-0.1,0.2-0.2,0.3-0.2l1.7-0.9c0.1,0,0.2-0.1,0.2-0.1c2.5-1.5,5.1-2.9,7.8-4
		c0.5-0.3,1.5-0.9,2-1.2c0.5-0.1,1.5-0.2,2-0.3l0.5,0l0.3-0.3c0.2-0.3,0.8-0.9,1-1.2c1.8-0.5,3.5-1,5.3-1.6l0.3-0.1l0.3-0.2
		c1.2-0.6,2.4-1.2,3.6-1.7c1-0.3,2-0.6,3-0.9c2.3-0.9,4.7-1.6,6.9-2.7c0.7,0,2.1,0,2.8,0.1c0.5-0.2,1.5-0.6,1.9-0.8
		c3.3-2.5,7.8-1.5,11.4-3.1c1-0.1,2-0.2,2.9-0.3c1.7-1.6,4.4-0.1,6-1.8c2.3-0.3,5.1,0.8,7-1c2.3-0.3,5.1,0.8,7-1
		c4.6-0.1,9.1,0.2,13.7-0.2c5.3-0.5,10.6-0.4,15.9-0.1l0.5,0c1-0.9,2.2,0.4,3.2-0.5c3.6,2.2,8.6-0.8,12,1.7c1.8,0.1,3.6,0.1,5.4,0.1
		v0.9c2.6,0,5.2,0,7.8,0.3c1.1-0.8,2-2,3.4-2.2c1.2-0.1,2-0.8,2.2-1.9l0.9-0.6c0.1,0,0.2-0.1,0.3-0.2c2.9-2.4,6.5-3.5,9.9-4.9
		c0.1,0,0.2-0.1,0.3-0.1l1.2-0.2c0.9,0.8,2.8,0.7,2.3-0.9l0.8,0c0.5-0.2,1.4-0.7,1.9-0.9l1.2-0.2c0.5-0.2,1.5-0.6,2-0.8l0.9-0.1
		c1.4,0.1,2.6-0.3,3.9-0.8l1.1-0.2c1.5,0,2.9-0.4,4.4-0.8l0.9-0.1c1.9,0.2,3.7-0.1,5.5-0.8C285.2,10.4,288.4,11.9,290.4,10
		 M272.7,13.9c0,0.7,0,2.2,0,2.9c-2.4,0.3-4.8,1-7.3,1c-0.8,1.5-2.7,0.9-4.1,1.2c0.2,0.5,0.6,1.6,0.8,2.1c-0.8-0.4-2.3-1.2-3.1-1.6
		c0.3,0.6,0.8,1.9,1.1,2.5l-1.2,0l0.1-1.2c-0.7,0-2.1,0.1-2.8,0.2c0.3,0.5,0.9,1.6,1.2,2.1l-1,0c-0.4-0.2-1.2-0.7-1.5-1
		c-2.5,1.5-4.8,3.2-7.5,4.4c0.2,0.4,0.7,1.2,0.9,1.6l-0.8,0.4c-0.6,0.3-1.8,0.9-2.4,1.1L245,30c-0.4-0.1-1.3-0.4-1.8-0.5
		c-2.5,2.2-5.9,4.1-6.9,7.4c-0.8-0.6-1.7-1.2-2.5-1.7c-2.5,1.1-3.8,3.5-5.1,5.8l1.2,1.2c-0.7,0-2.2-0.1-3-0.2c0.9,1.2,1.3,2.6,1.8,4
		c-2.3-1.1-1.7,2.5-0.2,3c-0.8,2.2-1.5,4.4-2.3,6.5c-0.1,1.8-0.4,3.6-1.2,5.3c-1.1,0.3-2.2,0.6-3.3,0.9c-0.6,0.1-1.9,0.4-2.5,0.6
		l-0.8-0.5l-1,0.4l-0.2,0.9l-0.6-0.1c-1,0.6-2.1,1-3.2,1.4c-1,0.3-2,0.6-3,0.9c-1.2,0.5-2.5,1-3.8,1.4c-0.1,0-0.2,0.1-0.2,0.1
		c-1.7,0.6-3.4,1.2-5,1.9c-0.1,0-0.1,0.1-0.2,0.1c-1.6,0.6-3.1,1.2-4.6,1.9c0,0-0.1,0.1-0.2,0.1l-1.6,0.9c-0.1,0-0.3,0.1-0.4,0.2
		c-5.4,2.3-10.7,4.8-15.7,7.8c-0.1,0-0.3,0.1-0.3,0.2l-1.7,0.8c0,0-0.1,0.1-0.2,0.1c-5.3,3.2-10.7,6.3-15.7,9.9
		c-0.1,0-0.2,0.1-0.2,0.2c-2.6,2.1-5.3,3.9-7.9,5.9c-5.1,4.1-10.7,7.9-14.9,13.1c-4.2,4.4-8.6,8.7-13,12.9c-1.7,2.9-4.3,5.1-6.1,7.9
		c-2.1,2.5-4,5.2-5.8,7.9c-0.1,0.1-0.3,0.3-0.4,0.4c-1.8,1.9-2.6,4.5-4.2,6.5c-1.3,2.4-2.7,4.7-4.1,7l-0.5,1c0,0.1-0.1,0.2-0.1,0.2
		l-0.9,1.8c0,0.1-0.1,0.2-0.1,0.2l-0.8,1.7c-0.1,0.1-0.2,0.4-0.2,0.5l-0.9,1.5c0,0.1-0.1,0.2-0.1,0.2l-0.8,1.7
		c-0.1,0.1-0.1,0.3-0.2,0.4c-1.2,2.5-2.2,5.2-3.3,7.8c-0.6,1.8-1.3,3.6-2.3,5.2l0.1,0.7c-0.4,0.2-1,0.8-1.4,1l0.4,0.8l0,1.2
		l-0.9,0.1l-0.5,0.9l0.4,0.8l0,1.1l-0.9,0.1l-0.4,1l0.5,0.8c-0.5,2.2-1,4.4-1.5,6.5c-0.2,0.7-0.5,2-0.7,2.7
		c-1.6,0.4-1.9,1.2-0.9,2.6c0,0.5-0.1,1.6-0.1,2.2c-1.7,0.4-1.9,1.3-0.8,2.8c-0.4,1.5-0.2,3.1-0.4,4.6c-1.5,2.4-0.4,5.4-1.4,7.9
		c-1.3,3.6,0.5,7.6-1.4,11c-0.2,7.8-0.2,15.6,0,23.4c1.8,4.4,0.1,9.3,1.3,13.8c-1.2,1.4-1.2,5,0.6,5.8c0,0.4,0,1.3-0.1,1.7
		c1.8,1.5,0.8,4.1,1.2,6.1c1.3,3.3,1.4,7,2.1,10.4l-0.5,0.8l0.4,0.9l0.9,0.1c0,0.6,0,1.8,0,2.3l-0.4,0.8l0.5,0.9l0.9,0.1
		c0,0.5,0.1,1.5,0.1,2l-0.4,0.8l0.5,1l0.9,0.1c1,3.8,2.3,7.5,3.6,11.2c0.1,0.2,0.2,0.5,0.2,0.7c0.1,0.5,0.1,1.3,0.2,1.8
		c0.3,0.5,1,1.5,1.3,2c0.7,1.9,1.4,3.8,2.2,5.7c0,0.1,0.1,0.3,0.2,0.4c0.5,1.3,1.1,2.6,1.7,3.9c-0.1,0.3-0.4,0.9-0.6,1.2
		c0.5,0.4,1.5,1.1,1.9,1.5c0.2,1.1,0.4,2.2,0.7,3.2c1.2,1.6,2.1,3.3,2.8,5.2c0.8,1.2,1.6,2.5,2.4,3.8c0.9,1.7,2,3.4,3,5
		c2.4,3.5,4.5,7.3,7.3,10.5c15.8-17.6,31.8-35,47.7-52.5c0.2,0.6,0.7,1.7,0.9,2.3c-4.8,3.8-8,9.2-12.4,13.3
		c-18.7,20.9-37.1,41.9-55.7,62.9c10.2,0,20.3,0.1,30.5,0c13.4-26.3,26.2-52.8,40-78.9c-0.1-0.8-0.2-2.4-0.2-3.2
		c1.1-1.3,2.8-1.4,4.2-2.2l0.3,0.3c6.6,6.8,13.5,13.2,19.8,20.3c6.2,6.4,12.7,12.4,18.6,19.1c24.5-28.1,49.1-56.2,73.5-84.5
		c1.1-1.2,3-2.9,1.8-4.7l0.5-0.8l-0.4-1L287,241l-0.1-0.9l0.4-0.8l-0.5-0.9l-0.9-0.1c-0.2-1.4-0.9-2.6-1.3-3.9c-0.7-2-1.2-4-1.9-6
		c-0.8-1.9-1.5-3.8-2.3-5.6c0-0.1-0.1-0.3-0.2-0.4l-0.4-1.2l0.4-0.8l-0.5-0.9l-0.9-0.1c-0.6-1.4-1.5-2.6-2.3-3.9
		c-0.2-0.5-0.7-1.5-0.9-2c-0.8-1.5-1.5-3.1-2.3-4.6c0-0.1-0.1-0.3-0.2-0.4c-2-3.7-4.8-6.9-6.8-10.6c-0.1-0.1-0.2-0.2-0.2-0.3
		c-5.5-7.8-12.3-14.7-19.7-20.6c-1.5,0.3-2.7,1.1-3.8,2.1c-0.8,0-2.5,0-3.3,0c-0.2,0.4-0.5,1.2-0.6,1.6c-1.5-0.4-3-0.7-4.3-1.3
		c-0.5-0.1-1.6-0.2-2.1-0.3l0-1.3c0.5-0.8,1.5-2.3,2.1-3.1l1.1,2c-0.5-1.1-0.9-2.1-1.4-3.2c2.8-1.4,4.8-4,5.9-6.9
		c1.2-0.8,1.7-2.2,2.3-3.4c2.9-2.1,4.2-6,7.4-7.5c0.2,0.6,0.7,1.8,0.9,2.4c0.1,0.1,0.2,0.5,0.2,0.6l0.2,0.8l-0.9,0.4
		c1.8,2.6,1.3,5.8,1.4,8.8c-0.5,1-1,2-1.4,3c4.5,1.6,7.1,6.4,10.7,9.5c0,0.1,0.1,0.1,0.2,0.2c2.4,3.1,5.1,6.1,8,8.8
		c2.4,5,6.3,9.1,8.9,14c0.1,0.1,0.1,0.2,0.2,0.3c0.8,1.4,1.7,2.7,2.6,4c0.2,0.5,0.6,1.6,0.8,2.1c0.4,0.6,1.1,1.9,1.4,2.5
		c0.1,0.1,0.2,0.3,0.2,0.4c0.5,1,1,2,1.5,3c0.8,1.9,1.4,3.8,2.3,5.6c0,0.1,0.1,0.3,0.2,0.4l0.4,1.2l-0.5,0.8l0.5,0.9l0.9,0.1
		l0.5,1.7c0,0.1,0.1,0.2,0.1,0.3c1,2.6,2.1,5.1,2.5,7.9c0.5,1.2,1.1,2.4,1.7,3.6c0.1-2.1,0.1-4.1,0.1-6.1l1.3,0
		c-0.4-0.4-1.1-1.4-1.4-1.8l1.2-0.2c-0.7-0.9-0.7-2-0.6-3.1c1.2-1.6,1.2-4.4,0-6l0.4-0.7c0.2-11.9,0-23.8,0.1-35.7
		c0.2-0.4,0.7-1.1,0.9-1.4c-0.1-5,0.6-10.1-0.4-14.9c1.1-1.4,1.2-3.8,0-5.1c1.2-4.9,0.3-10.1,0.3-15.1c-0.3-0.2-1-0.7-1.3-1
		l-0.6,0.6c-0.5-0.3-1.4-1-1.8-1.3c0.3-1.7-0.4-2.4-2.1-2.1c-0.8-1.5-1.7-2.9-2.7-4.3c-0.5-1.7-1.1-3.4-1.5-5.1
		c0.1-2.3-0.1-4.6-0.3-6.9c4.2-0.1,8.4,0.1,12.6,0.1l0.1-0.2c0.7,0,2.2,0,2.9,0l0.1,0.2c3.9,0.1,7.8-0.2,11.6,0
		c-0.1,2.3-0.3,4.6-0.3,6.8c-0.5,1.6-1.1,3.2-1.5,4.8c-0.1,0.1-0.2,0.4-0.2,0.5c-0.3,0.6-0.9,1.9-1.3,2.6c-0.8,1.8-2.2,3.1-3.6,4.4
		c-1.3,0.5-2.6,1-3.8,1.4c0.1,1.4,0.1,2.8,0.4,4.2c-0.5,5-0.5,10.2,0.1,15.2l-0.1,0.5l-0.1,0.7l0.1,1.3l-0.1,0.7l0.1,1.4l0.1,0.7
		l-0.3,1.5l0.4,0.5l-0.7,0.5l1.1,1c0.2,13-0.1,26.1,0.2,39.1c0.2,0.4,0.7,1.2,0.9,1.7c0.2,6.8-0.2,13.6,0.2,20.3
		c0.3-0.5,0.8-1.5,1.1-2c0,0,0-0.1,0.1-0.1c1-3.3,1.8-6.6,3.3-9.8c0.5-1.4,1.1-2.8,1.6-4.2c0.8-1.6,1.5-3.2,1.9-5
		c0.5-0.9,1-1.9,1.5-2.8c1.5-3.5,3.2-6.9,5.5-9.9c0.1-0.1,0.2-0.3,0.2-0.4c0.5-0.7,1.4-2,1.8-2.6c0-0.1,0.1-0.2,0.2-0.2
		c0.4-0.7,1.1-2,1.5-2.7l0.9-0.1l0.5-0.9l-0.4-0.8c1.6-1.4,2.6-3.4,3.7-5.2c2.7-4.1,6.6-7.3,9.6-11.2c0-0.1,0.1-0.1,0.2-0.2
		c2.9-3.2,5.9-6.3,9.7-8.5c-0.5-1.3-1-2.6-1.4-4c1.1-1.9,1.2-4.8,0-6.7c0.2-0.6,0.7-1.9,1-2.5c0.2-0.5,0.7-1.4,0.9-1.9l-0.4,1.2
		c0.7,0,2.1-0.1,2.8-0.1c0.5,0.4,1.5,1.2,2.1,1.6c0,0.4,0.1,1.2,0.1,1.6c3.3,4.7,7.2,9.1,10.8,13.6c1.4,1.4,3.3,2.5,3.6,4.6
		c-1.5-0.1-3,0.1-4.4,0.6c-0.5-0.2-1.5-0.6-2-0.8l-0.9,0.5c-0.6,0-1.8-0.1-2.5-0.1c-0.5-1.6-1.4-1.8-2.7-0.7c-0.5-0.3-1.6-1-2.1-1.3
		c-0.4-1.6-0.9-1.7-1.6-0.2c-6.9,6.4-13.9,12.9-19.3,20.7c0,0.1-0.1,0.2-0.2,0.3c-0.5,0.6-1.4,2-1.9,2.6c0,0-0.1,0.1-0.1,0.2
		c-0.4,0.7-1.3,2.1-1.8,2.8c-0.1,0.1-0.1,0.2-0.2,0.3c-1.4,2.1-2.6,4.4-3.8,6.7c0,0.1-0.1,0.3-0.2,0.4c-1.9,3.1-3.4,6.4-4.9,9.8
		c-0.2,0.5-0.6,1.4-0.9,1.9c0,0.1-0.1,0.2-0.1,0.3c-0.7,1.5-1.4,3-1.9,4.6c0,0.1-0.1,0.3-0.2,0.4c-1,2.1-1.5,4.4-2.3,6.6
		c-0.4,1.3-0.9,2.5-1.2,3.8l-0.9,0.1l-0.5,1l0.5,0.8c-0.6,2.2-1.1,4.4-1.3,6.7c3.7,3.4,6.8,7.4,10.1,11.1c0.4-1.2,0.9-2.4,1.3-3.5
		c0.5,0.1,1.6,0.2,2.1,0.3c-0.1,1.2-0.1,2.5-0.2,3.7c0.5,0.3,1.5,0.9,2.1,1.1c-1.4,0-2.7,0-4.1,0l0.6-1.1c-2.3,0.3-4.5,0.7-6.8,0.6
		c-9.6-0.1-19.3,0-29,0c2.1-4.2,4.6-8.1,6.6-12.4l-0.4-2c-0.4,1-1.2,2.9-1.6,3.8c-2.2-0.4-2.9,2.2-4,3.5c-0.6,1.2-2.4,1.7-2.1,3.3
		c-2.2,0.2-3,2.5-4.3,3.9c-1.2,1.9-3.6,3.2-3.4,5.7c-0.5,0.2-1.6,0.5-2.1,0.6c-2.6,3.4-5.1,6.8-8.3,9.7c-8.1,9.6-16.4,19-24.4,28.8
		c-21.1,24.1-41.7,48.7-62.6,73c13.9,0,27.8,0,41.6,0c21.1-38.3,42.2-76.5,63.1-114.9c13.3-0.1,26.7-0.4,40,0.1
		c23.5,25.6,46.8,51.4,70.3,77.1c11.6-12.4,22.9-25.2,34.3-37.7c3.1-3.3,5.7-7.1,9.3-9.8c2.1,1,3.5,3.1,5.2,4.7
		c6.5,7.5,14.2,13.9,20.6,21.5c7.3,7.2,14.5,14.6,21.7,22c1.2-3.1,3.4-5.8,4.8-8.8c0.2-0.5,0.8-1.5,1-2c0.9-1.6,1.6-3.2,2.4-4.8
		c0.7-1.4,1.5-2.7,2.3-4c0-0.5,0.1-1.4,0.1-1.8c0.1-0.1,0.2-0.5,0.2-0.6c1.1-1.4,1.8-3,2.6-4.5c0-0.5,0.1-1.6,0.1-2.2
		c0.6-0.9,1.3-1.8,1.9-2.7c0-0.5,0.1-1.6,0.2-2.1c0.5-1,0.9-2,1.2-3.1c1.3-2.5,1.5-5.2,2.3-7.8c1.2-1.4,1.6-3.2,1.3-5
		c1.6-0.4,1.9-1.4,0.7-2.8c0.3-1.1,0.4-2.3,0.5-3.5c0.2-0.7,0.7-2.1,0.9-2.8l0.8-0.1l0.6-0.9c-0.2-0.4-0.6-1.3-0.8-1.8
		c0.4-2.4,0.5-4.8,1.1-7.1c1.8-0.3,2-3.7,0.8-4.9c0.8-2.2,0.3-4.6,0.4-6.9l1.3,0c-0.2-0.3-0.7-0.9-0.9-1.2c0.2-0.8,0.4-1.7,0.6-2.5
		c0.9-5.5,1-11.2,0.7-16.8c0.6-1.5,0.6-3.3,0-4.8c0.3-5.6,0-11.2-0.6-16.8c0-1.1-0.4-2.2-1-3.1c0-2.4,0-4.7-0.1-7.1
		c-1.8-1.8-0.5-4.5-1.2-6.7c1.1-1.4,0.8-2.3-0.7-2.7c-0.9-4.7-2.3-9.3-3.3-14l0.5-0.8l-0.4-1l-0.9-0.2l0-1.3l0.4-0.8l-0.5-0.9
		l-0.9-0.1c-0.3-1.2-0.8-2.4-1.2-3.6c-0.5-1.2-0.9-2.5-1.4-3.8c0-0.1-0.1-0.2-0.1-0.2c-0.5-1.6-1.2-3.2-1.9-4.7
		c0-0.1-0.1-0.3-0.2-0.4c-0.2-0.5-0.7-1.4-0.9-1.8c-2-5.3-4.7-10.3-7.5-15.2c-1.1-1.9-2-3.8-3.3-5.6c-0.1-0.1-0.2-0.3-0.3-0.4
		c-0.4-0.6-1.3-1.9-1.7-2.6c-0.1-0.1-0.3-0.4-0.3-0.5c-0.4-0.6-1.3-1.9-1.7-2.6c-0.1-0.1-0.2-0.3-0.3-0.4c-3-4.5-6.5-8.6-9.6-13
		c-2-2-3.6-4.4-5.8-6.2c-5.4-4.9-10-10.7-16-15c-6.1-6-13.3-10.8-20.4-15.5c-1-0.7-2-1.3-3-2c-1.6-1.1-3.2-2.1-4.9-3
		c-2.2-1.4-4.6-2.6-6.8-3.9c-0.1,0-0.3-0.2-0.3-0.2l-1.6-0.8c-0.1,0-0.2-0.1-0.2-0.1c-1.9-1-3.7-2-5.6-2.8c-0.1-0.1-0.4-0.2-0.6-0.3
		l-1.4-0.7c-0.1-0.1-0.4-0.2-0.6-0.3l-1.5-0.7c-0.1,0-0.3-0.2-0.5-0.2c-2.4-1.3-5.1-2.2-7.6-3.3c-1.6-0.7-3.3-1.3-5-2
		c-2-0.7-3.9-1.5-5.9-2.2l-0.1-0.9l-1-0.4l-0.8,0.5c-1.1-0.4-2.2-0.7-3.3-1.1c-0.5-0.1-1.6-0.3-2.2-0.3c-2.3-0.8-4.8-2.2-7.3-1.3
		c0-2,0-4-0.7-5.9c-0.8-3.2-1.9-6.3-2.7-9.5c-5.8,4.6-11.6,9.4-15.8,15.6c-1.8,2.7-4.2,4.9-5.9,7.6c-0.1,0.1-0.2,0.3-0.2,0.4
		c-1.9,3-4.5,5.6-5.9,8.9c-3.2,3.8-5.5,8.3-7.9,12.7c-0.1,0.1-0.2,0.3-0.3,0.4c-0.5,0.7-1.4,2.1-1.8,2.8c0,0.1-0.1,0.2-0.1,0.2
		l-0.9,1.7c0,0-0.1,0.1-0.1,0.2l-0.7,1.7c-0.1,0.1-0.2,0.3-0.2,0.4c-1.7,2.8-3.4,5.7-4.9,8.7c-0.1,0.1-0.2,0.3-0.2,0.4l-0.8,1.6
		c0,0-0.1,0.2-0.1,0.2c-0.6,1.2-1.2,2.5-1.8,3.7c-0.1,0.1-0.1,0.3-0.2,0.4c-0.3,0.7-1,2-1.3,2.6c-1.4,2.6-2.7,5.2-4.3,7.7
		c-9.2,0.2-18.5,0.2-27.7,0c-2.1-4-3.6-8.4-6.7-11.8l-0.3-0.6c-0.1-0.1-0.2-0.4-0.2-0.5l-0.7-1.3c-0.1-0.1-0.2-0.4-0.3-0.6l-0.7-1.5
		c-0.1-0.1-0.2-0.3-0.2-0.4c-1.3-2.8-3-5.3-4.6-8c-0.3-0.7-0.9-2-1.2-2.7c0-0.1-0.1-0.3-0.2-0.3c-0.9-1.7-1.8-3.3-2.8-4.9
		c0-0.1-0.1-0.2-0.2-0.3l-0.4-0.8c-2.5-4-4.5-8.3-7.5-11.9c-0.2-0.5-0.6-1.4-0.9-1.9c0,0-0.1-0.2-0.1-0.2c-0.8-1.4-2-2.6-3-3.9
		c-1.6-2.9-3.7-5.6-5.9-8c-2.8-4-5.8-7.9-9.1-11.5c-1-1.3-2.1-2.6-3.1-3.8c1.3-0.4,7.1,0.7,3.8-2.2l0.5-0.7c0.4,0.4,1.2,1.3,1.7,1.7
		l-1.6,2.2l2.3-1.7c0.9,1.8,1.9,3.6,3.7,4.6c8.9,6,17.9,11.8,26.9,17.6c3.8,2.5,7.4,5,11.3,7.3c1.1-5,2.3-10,3.4-15
		c3.4-14.5,6.4-29,10-43.4c3.5,14.8,6.7,29.7,10.2,44.5c1.1,4.6,2,9.2,3.2,13.8c4-2.4,8-4.8,11.8-7.6c8.7-5.5,17.2-11.2,25.9-16.8
		c1.1-0.6,1.9-1.6,2.2-2.9c0.9,0.1,2.6,0.2,3.4,0.3c-0.7-0.6-1.3-1.2-2-1.8c0.5-0.5,1.4-1.3,1.8-1.8c0.5,0.6,0.9,1.2,1.4,1.8
		c1.4-2.3,3.8-3.6,5.4-5.8c0.1-0.1,0.4-0.3,0.5-0.4l1-0.3c-1-3-2.8-5.7-5-7.9c-1.8-1.5-4.7-2.1-5.9-3.9l1.6-0.7
		c-1.9-1.3-3.8-2.6-5.7-3.9c-1.3,0.5-2.8,0.6-3.7-0.7c-0.8-3.5-5.3-3.7-8-5.3L336,22l-0.7,0c-0.3-1.4-1.5-2.1-2.5-2.9
		c-3.1,0-5.9-2.2-8.9-1.8l-0.7,0.1c-1-1.1-2.7-1-4-1.4c-15.1-2.7-30.7-2.4-45.7,0.6C273.2,15.7,272.9,14.8,272.7,13.9 M180.4,29.4
		c-1.1,3.2-1.5,6.7-0.8,10.1c1.9,9.7,6.1,18.8,9.5,28c4.5-1.8,8.9-3.9,13.4-5.6c-3.4-8.6-6.4-17.5-10.9-25.6
		c-1.9-3.6-4.9-6.5-7.9-9.3C182.6,27.9,181.5,28.7,180.4,29.4 M409.7,28.8c-3.9,2.6-6.2,6.8-8.2,10.8c-3.5,7.3-6.2,14.9-9.2,22.4
		c4.4,1.8,8.8,3.6,13.1,5.7c3.2-7.1,5.9-14.5,8.2-21.9c1.6-5.3,3.1-11.3,0.3-16.5C412.5,28.9,410.9,27.3,409.7,28.8 M203.5,37
		c0.4,7.8,2.5,15.3,4.4,22.9c3.5-1.2,7.1-2.4,10.6-3.6c-2-7.5-3.3-15.2-6.6-22.2c-1-2-2.5-4.5-5.1-4.4
		C203.8,30.5,203.5,34.3,203.5,37 M235.4,30.4C236,31,236,31,235.4,30.4 M383.2,33.2c-3.7,7.2-5,15.3-7.1,23.1
		c3.6,1.2,7.1,2.4,10.7,3.6c1.8-7.6,4-15.1,4.5-22.9c-0.1-2.4-0.1-5.5-2.4-6.8C386.4,28.7,384.2,31.3,383.2,33.2 M156.1,33.1
		c-3,4.1-2.3,9.4-1,14c3.1,11.1,8.6,21.2,13.2,31.7c4.8-2.8,9.7-5.6,14.7-8c-4.7-10.4-9.1-20.9-15.3-30.5c-1.8-3.1-4.8-5.1-6.8-7.9
		C159.3,32.6,157.7,32.8,156.1,33.1 M232.1,35.2c1.4,0.1,3.1-1.7,3.1-3.2C233.7,32,231.9,33.7,232.1,35.2 M436.5,32
		c-6.5,2.4-10,8.6-13.2,14.3c-4.3,8-8,16.2-11.6,24.4c5,2.4,9.9,5.2,14.7,8c5-11.3,11.2-22.4,14-34.5C441.1,40,441.5,33.9,436.5,32
		 M362.1,34.2c-0.2,1.4,0.4,2,1.7,1.9C364.1,34.7,363.5,34,362.1,34.2 M226.2,35.2C226.9,35.8,226.9,35.8,226.2,35.2 M229.2,36.2
		C229.8,36.8,229.8,36.8,229.2,36.2 M364.2,37.2C364.7,37.8,364.7,37.8,364.2,37.2 M365.3,39.3c-0.6,1,0.5,3,1.7,2.4
		C367.9,40.7,366.5,38.7,365.3,39.3 M128.2,43c-2.6,3.5-2.9,7.9-1.3,11.9c3.9,11.3,10.9,21.1,17.3,31.1c1.5,2.4,3,4.7,4.9,6.8
		c2.4-3.2,6-5.1,9.3-7.3c0.7,0.1,2,0.2,2.7,0.2c-0.4-0.3-1.3-0.9-1.8-1.2c1.5-1,3-1.9,4.5-2.9c-7.4-10.7-13.7-22.2-22.4-31.9
		C138,45.9,133.6,42.1,128.2,43 M451.7,51.7c-7.8,9.4-13.8,20-20.6,30c5.2,3.3,10.2,7.1,15.1,10.9c6.8-10.5,14.1-20.7,19.5-32
		c1.8-4,3.6-8.3,3.1-12.8c-0.2-3.2-3.6-5.9-6.8-4.6C457.7,44.8,454.6,48.4,451.7,51.7 M486.6,59.6c-5,2.8-9.2,6.8-13.3,10.7
		c-8.2,8.4-15.7,17.4-23.5,26.1c0.5,0.1,1.5,0.3,2,0.4c2,1.7,4.1,3.4,5.7,5.6c2.2,1.5,6,3.3,4.9,6.6c0.7-3.1,2.4-0.4,3.7,0.7
		c9.9-11.7,21-22.6,28.7-36c2.9-4.8,4.2-11.1,1.2-16.3C492.8,57.9,489.4,57.9,486.6,59.6 M99.3,58.3c-4.4,5.1-1.5,12,1.6,16.9
		c7.8,12.7,18.3,23.3,27.9,34.6c4.8-5.1,10.4-9.3,15.4-14.3c-7.9-8.7-15.3-17.8-23.6-26.1c-4.3-4.1-8.7-8.3-14.3-10.8
		C104.1,57.6,101.6,58.2,99.3,58.3 M68.8,80.7c-0.5,2.7-1.5,5.5-0.5,8.2c1.9,6,6.4,10.6,10.7,15.1c9.9,9.8,20.9,18.4,31.8,27.3
		c4.2-6.5,9.9-11.7,14.5-17.9C111.9,103.1,99.6,91.3,84.9,83C80.1,80.4,74,77.8,68.8,80.7 M504.3,86.3
		c-12.3,8.1-23.2,18.1-34.7,27.2c5,5.9,10,11.7,14.6,17.9c12.2-10.1,25-19.6,35.6-31.5c3.6-4.5,8-9.7,7-15.9
		c-0.1-2.1-1.6-4.2-3.8-4.3C516.1,78.7,509.9,82.8,504.3,86.3 M47.2,106.3c-2.1,1.8-5.7,2.2-6.9,4.7c1.6,2.3,2.6,4.8,3.4,7.5
		c2.8,5.5,7.6,9.6,12.3,13.5c12.2,9.8,25.7,17.7,38.8,26.2c3.6-7.6,7.8-14.8,12.4-21.8c-14.3-8.9-28.1-18.8-43.5-25.9
		C58.5,107.8,52.9,106.4,47.2,106.3 M519.4,116.3c-10.9,6.5-21.8,13.1-32.1,20.4c1.6,1.6,3.1,3.3,3.6,5.5c4.1,4.5,5.9,10.5,9.2,15.6
		c11.8-7.4,23.7-14.7,34.9-23.1c5.8-4.5,11.8-9.1,15.6-15.5c1.9-2.8,1.4-6.3,2.8-9.3c-2.4-1.9-5-4-8.3-3.6
		C535.7,106.9,527.4,112,519.4,116.3 M22.3,145.4c-0.2,3.5-0.3,7.3,2.1,10.2c5.1,6.6,12.8,10.3,20,14.2c13,6.4,26.6,11.5,40,17
		c2.3-8.3,5.1-16.5,8.6-24.4C77.4,156,62.1,149.2,46,144.6C38.3,142.5,29.4,140.4,22.3,145.4 M553.1,143.5
		c-17.7,4.1-34.1,12.1-51,18.6c0.4,1.5,0.6,3,0.6,4.5c0.3-0.1,0.8-0.2,1-0.3c2.2,6.8,5,13.4,6.5,20.4c15.4-6.1,31-12,45.6-19.9
		c7.1-4,14.7-8.8,17.5-16.9c-0.4-2.6-1.8-4.8-3.4-6.7C564.3,142.1,558.6,142.1,553.1,143.5 M16,185.1c-2.4,0.8-4,2.7-5.8,4.4
		c0.2,3.2,0.7,6.8,3.4,9c5.7,5.2,13.3,7.2,20.5,9.4c14.8,4,30,6.2,45.1,9c0.6-8.6,2.3-17.2,3.9-25.7c-16-2.6-31.9-6.2-48-7.5
		C28.7,183.4,22.1,183,16,185.1 M551.1,184.6c-13.3,1.8-26.5,4.3-39.7,6.8c2.1,8.3,3.4,16.9,4.1,25.4c16.5-3,33.2-5.3,49.2-10.2
		c5.8-2,12-4,16.5-8.4c2-2.3,4.6-5.6,2.4-8.7c0.3-0.3,1-0.8,1.3-1.1c-2.8,0-4.2-3.2-7-3.6C569.3,182.4,560,183.7,551.1,184.6
		 M7.2,228.2c-0.2,2.4-0.2,4.9,0.2,7.4c6.5,7,16.6,8.3,25.5,9.6c15.1,1.8,30.4,1.7,45.6,2.3c-0.4-8.7-0.3-17.3,0.3-26
		c-16.6-0.2-33.2-1.5-49.7-0.3C21.4,221.8,13.1,222.9,7.2,228.2 M516.1,221.5c0.2,8.6,0.9,17.3,0.1,25.9c14.9-0.4,29.8-0.5,44.7-2.1
		c9.1-1.1,18.7-2.6,25.9-8.6c1.1-2.6,1-5.4,0.9-8.1c-4.8-5-11.9-6.3-18.5-7C551.5,219.7,533.8,221.4,516.1,221.5 M64.9,254.5
		c-13.9,1.9-28.1,3.2-41.2,8.2c-4.2,1.7-9.6,4.9-8.4,10.3c1.5,5.5,8,6.7,12.8,7.4c17.9,1.5,35.7-2.1,53.4-4.1
		c-1.3-7.7-2.1-15.5-2.9-23.3C74.1,252.9,69.5,254.1,64.9,254.5 M516,252.7c-0.5,8-1.6,15.9-2.8,23.7c12.9,1.4,25.8,3.6,38.8,4.3
		c9.3,0,20.5,1.4,27.6-6.1c-0.1-2.5,0.4-5.6-1.7-7.5c-5-5-12.3-6.4-18.8-8.1C544.8,256,530.3,254.7,516,252.7 M42.8,292.9
		c-5.1,1.9-10.3,3.9-14.2,7.7c-1.6,1.9-3.1,4.6-2.3,7.1c3.3,4.6,9.6,5,14.8,5c16.1-0.8,31.5-5.8,47.1-9.2
		c-1.7-7.1-3.9-14.1-5.4-21.3C69.4,285.6,55.8,288.3,42.8,292.9 M512,282.2c-1.7,7.1-3.4,14.2-5.6,21.2c15.4,3.6,30.7,8.3,46.6,9.3
		c5.8,0.2,13.1-0.4,16.2-6.2c-1.8-8.1-10.4-11-17.2-13.6C538.9,288.2,525.3,285.6,512,282.2 M419.6,312.5
		c-8.4,9.6-17,19.2-25.4,28.8c2.3,3.9,6.3,6.9,9.1,10.6c9-16.5,18.1-32.9,26.8-49.6C426.3,305.4,422.8,308.8,419.6,312.5
		 M52.9,327.9c-3,2.4-6.9,5-6.9,9.2c-0.1,3.1,2.8,4.6,4.7,6.5l-0.6-1.4c5,0.9,10-0.1,14.8-1.6c11.4-3.5,22.2-8.8,33.1-13.6
		c-2.7-5.8-5.2-11.8-7.5-17.8C77.8,315.2,64.5,320,52.9,327.9 M500.8,316.7c-0.4,3.7-2.6,7-4,10.4c12,5.3,23.8,11.3,36.6,14.6
		c4.6,1.3,9.4,1.1,14-0.1c2-2.5,1.7-6.2-0.3-8.7c-2.7-3.5-6.5-5.8-10.2-8c-10.4-6.1-21.7-10.4-32.6-15.6
		C503.2,311.7,502.8,314.7,500.8,316.7 M72,347.8c-4.1,3-8.8,6.6-8.9,12.1c0.5,0.8,1.1,1.5,1.6,2.3c1.5,0.5,2.9,1,4.4,1.5
		c14.4-2.6,26.8-10.8,39.5-17.5c-3-4.8-5.8-9.7-8.5-14.7C90.6,336.7,80.9,341.6,72,347.8 M487.3,344.4c2.4,2.4,4.5,5.2,7.6,6.8
		c10.7,5.5,21.5,12.1,33.9,12.6c0.5-0.2,1.5-0.8,2-1c0.5-1.5,1.1-3,1.7-4.5c-2.3-3.5-4.8-7-8.3-9.4c-9.1-6.8-19.5-11.7-29.4-17.4
		C492.3,335.8,489.9,340.2,487.3,344.4z"/>
	<path class="st0" d="M701.2,53.2c0.8-1.4,1.5-2.9,2.8-3.9c1.5,0.3,1.9,2,2.7,3.1c20,35,38.6,70.8,56.4,106.9
		c-10.1,0-20.2,0.2-30.3-0.1c-3-4-4.3-9.2-6.8-13.7c-14.6,0-29.2-0.1-43.8,0.1c-2.1,4.6-4.1,9.1-6.2,13.7c-10.2,0-20.5,0-30.8,0
		C662.9,123.4,681.3,87.9,701.2,53.2 M680.6,96.6c-10.5,19.7-20.7,39.6-30.6,59.6c8.1,0.1,16.1,0,24.2,0c2-4.1,3.5-8.4,5.9-12.3
		c1-1.6,3.2-1.3,4.9-1.5c12.7,0,25.4,0,38.1,0c1.8,0,3.6,0.4,5.3,0.9c1.9,4.3,3.9,8.6,5.8,12.9c8.1,0,16.2,0,24.3,0
		c-17.3-34.5-35.1-68.7-54.1-102.3C695.8,67.8,688.3,82.3,680.6,96.6z"/>
	<path class="st0" d="M925.4,50.5c17.1-2.6,35.8-0.3,50.1,9.9c11.1,7.7,18.4,20.2,20.6,33.5c2.4,14.9,0.3,31.1-8.5,43.7
		c-8.6,12.8-23.5,20.4-38.6,22.3c-16.9,2.3-35.3-0.4-49.3-10.6c-11.1-8-18.3-20.8-20.1-34.2c-2.3-15.3,0.5-32,10.2-44.4
		C898.2,59.4,911.7,52.7,925.4,50.5 M925.4,53.5c-13.2,2.1-26.1,8.9-34,19.9c-8.6,11.5-10.8,26.7-9,40.7
		c1.6,13.6,9.2,26.3,20.6,33.9c13.4,9,30.3,11,46,8.9c14.4-1.9,28.4-9.3,36.5-21.5c8.1-11.8,9.8-26.9,7.7-40.8
		c-2-12.7-9.1-24.7-19.8-32C959.6,52.9,941.7,51,925.4,53.5z"/>
	<path class="st0" d="M1136.8,49.3c8.1,1.7,14.7,7,21.3,11.6c20.2,14.9,38.7,31.7,58.2,47.4c-0.6-13.1,0.1-26.2-0.5-39.3
		c-0.1-6,0-12,0-18c9.6,0,19.2,0,28.8,0c0,36.7,0,73.3,0,110c-7.8-1.5-14.2-6.5-20.5-10.9c-20.4-15-39.3-31.9-58.9-47.9
		c-0.1,19,0.4,38.1,0.2,57.1c-9.5,0-19,0-28.5,0C1136.8,122.6,1136.7,85.9,1136.8,49.3 M1139.7,53.1c0,34.4,0.1,68.8,0,103.2
		c7.5-0.1,15.1-0.1,22.6,0c0.1-17.1-0.4-34.2-0.3-51.4c-0.3-2.4,1.1-5.8,4.1-5.3c2.8,1.4,5,3.8,7.5,5.8c16.3,13.4,32.2,27.4,49,40.1
		c6,4.3,12,9,19,11.7c0-34.3-0.1-68.7,0-103c-7.6-0.2-15.2-0.1-22.8-0.1c0,18.3,0.5,36.7,0.2,55c-0.4,2.9-4.1,2.2-5.7,0.8
		c-17.9-14.7-35.3-30.1-53.8-44.2C1153.2,61,1146.9,56.2,1139.7,53.1z"/>
	<path class="st0" d="M1532.8,62.8c13.9-12.1,33.6-14.8,51.3-12.5c8.6,1.1,17.3,2.7,25.2,6.4c-0.2,7.3,0,14.6-0.1,21.9
		c-8.6-3.5-18-4.9-27.2-5.3c-10.1-0.1-20.9,2.2-28.4,9.3c-7.8,7.5-9.9,19.1-8.4,29.5c1.1,8.8,5.9,17.7,14.1,21.7
		c8.9,4.6,19.3,3.4,28.6,1c0.1-5.6,0-11.2,0.1-16.8c-5.9,0-11.8,0-17.8,0c0-7.9,0-15.8,0-23.7c15.5,0,31,0,46.5,0
		c0,21.9,0,43.8,0,65.8c-8.2,0.1-16.2-1.7-23.8-4.7c-17.4,7.1-38.6,8-55-2.3c-13.9-8.7-21.6-24.9-22.7-40.9
		C1513.7,94.3,1518.7,74.7,1532.8,62.8z"/>
	<path class="st0" d="M773,51c16,0,32,0,48,0c10.9,0.2,22.2,3.2,30.2,10.8c16.2,14.8,14.4,44.2-3.3,57.2c9.2,12.9,18,26.2,25.5,40.2
		c-10.9,0.1-21.9-0.1-32.8,0.1c-9.7-18.5-22.1-35.5-35.1-51.8c5.2,1,10.6,1.8,15.9,0.8c5.1-1,9.1-5.3,10.3-10.3
		c1.3-5.6,1.2-11.9-2-16.8c-2.5-4-7.2-6.4-11.9-6.5c-5.4-0.2-10.8,0-16.2,0c0,28.1,0,56.3,0,84.4c-9.6,0.1-19.2,0-28.8,0.1
		C773,123.2,773,87.1,773,51 M776,54c0,34.1,0,68.2,0,102.2c7.6,0,15.2,0.1,22.8-0.1c-0.1-26.4,0-52.8-0.1-79.2
		c-0.1-2.2,0.3-5.4,3.3-5.1c8.4,0.2,17.8-1.8,25.4,2.8c9.5,6.5,10.4,21,4.4,30.2c-4.1,6.2-12.2,7.4-19.1,6.9
		c10.8,14.1,21.3,28.6,29.4,44.4c8.8,0.1,17.6,0,26.4,0c-7.1-12.6-15.2-24.6-23.6-36.4c0.8-4.2,5.1-6.1,7.4-9.3
		c6.7-8.2,8-19.5,6.2-29.7c-1.7-9.1-7.9-17.2-16-21.6c-6.9-3.9-14.9-5.2-22.7-5.2C805.3,54,790.7,54,776,54z"/>
	<path class="st0" d="M1014,51c9.6,0,19.2,0,28.8,0c-0.1,22.3,0,44.6,0,67c-0.2,5.6,2.1,11.3,6.8,14.7c6.3,4.6,14.9,5.3,22.3,3.2
		c7-1.9,12.8-8.4,12.9-15.8c0.1-23,0-46,0-69.1c9.6,0,19.2,0,28.8,0c0,24.7,0,49.3,0,74c0,9.5-4.7,18.6-12,24.5
		c-10.5,8.5-24.4,11.1-37.6,11.3c-12.7-0.1-26.1-2.5-36.5-10.2c-8.1-5.8-13.3-15.5-13.4-25.5C1013.9,100.3,1014,75.7,1014,51
		 M1017,54c0,23.3,0,46.7,0,70c-0.1,7.7,2.8,15.3,8.3,20.7c8.9,9.2,22.2,12.4,34.6,12.9c13,0.5,26.7-1.3,37.6-8.9
		c7.7-5.3,13.1-14.2,12.9-23.7c0-23.7,0.1-47.4,0-71c-7.6,0-15.1,0-22.7,0c0,21.3,0,42.7,0,64c0.1,5.5-1.7,11.2-5.7,15
		c-8.4,8.3-22.4,8.8-32.4,3.3c-6.6-3.5-10-11-9.9-18.3c0-21.3,0-42.7,0-64C1032.2,54,1024.6,54,1017,54z"/>
	<path class="st0" d="M1268.8,51c16.4,0,32.8-0.1,49.2,0.1c14.3,0.3,29,5.5,38.7,16.3c9.2,10.1,13.4,24.1,13.2,37.6
		c0.2,14.2-4.3,29-14.6,39.2c-9.4,9.7-23,14.4-36.2,14.9c-16.7,0.3-33.5,0-50.2,0.1C1268.7,123.2,1268.8,87.1,1268.8,51 M1271.8,54
		c0,34.1,0.1,68.2,0,102.3c12.8-0.1,25.5,0,38.3,0c9.5,0.2,19.2-0.3,28.1-4.1c14.6-5.7,25.2-19.7,27.8-35c2-12.5,1.3-26-4.4-37.5
		c-4.6-9.3-12.6-16.9-22.1-21c-7.6-3.5-16.1-4.6-24.4-4.6C1300.6,54,1286.2,54,1271.8,54z"/>
	<path class="st0" d="M1422.8,51c26.3,0,52.7,0,79,0c-0.1,7.9,0,15.8,0,23.7c-16.8,0-33.5,0-50.2,0c0,6-0.1,12,0.1,18
		c15-0.1,30,0,44.9,0c0,7.9,0,15.8,0,23.7c-15,0-30,0-45,0c0,6.3,0,12.7,0,19c17.1,0,34.1,0,51.2,0c0.1,7.9,0,15.8,0.1,23.7
		c-26.7,0.2-53.3,0-80,0.1C1422.7,123.2,1422.8,87.1,1422.8,51z"/>
	<path class="st0" d="M1623.2,51c10.3,0,20.5,0,30.8,0c6.7,15.5,13.5,30.9,21.2,45.9c7.1-15.2,14.3-30.4,20.9-45.9
		c10.3,0,20.6,0,30.8,0c-11.2,23.6-23.3,46.7-36.9,69c-1,1.5-0.8,3.3-0.8,5c0.1,11.4,0,22.8,0,34.2c-9.6,0-19.1,0-28.7,0
		c-0.3-12.8,0.1-25.5-0.2-38.3C1646.9,98.3,1634.5,74.9,1623.2,51z"/>
	<path class="st0" d="M1740.2,51c15.6,0,31.1,0,46.7,0c9.1,0,18.4,1.9,26,7.2c8.1,5.4,13.3,14.6,14.5,24.2c1.2,10-0.2,20.7-5.9,29.2
		c-4.9,7.7-13,12.9-21.7,15.2c-10.1,2.8-20.7,1.3-31.1,1.7c0.1,10.2,0,20.4,0,30.7c-9.5,0-19,0.1-28.5,0
		C1740.3,123.1,1740.2,87.1,1740.2,51 M1768.8,74.8c0,10-0.1,20,0.1,30c5.8-0.1,11.5,0.1,17.3-0.1c4.7-0.2,9.1-3.5,10.7-7.9
		c2.1-5.5,1.8-12.1-1.6-17c-2.3-3.3-6.3-5-10.3-5C1779.6,74.7,1774.2,74.8,1768.8,74.8z"/>
	<path class="st0" d="M1834.2,51c30.5,0,61-0.1,91.6,0c-0.1,7.9,0,15.8,0,23.7c-10.4,0-20.8,0-31.2,0c-0.2,28.2,0,56.4-0.1,84.5
		c-9.6,0-19.2,0-28.7,0c0-28.2,0-56.3,0-84.5c-10.5-0.1-21,0-31.5,0C1834.2,66.8,1834.3,58.9,1834.2,51z"/>
	<path class="st0" d="M370.2,63.2C370.8,63.9,370.8,63.9,370.2,63.2z"/>
	<path class="st0" d="M932.5,70.8c10.2-1.7,21.5,1.4,28.6,9c12.2,13.5,12.2,36.1,0.7,50c-10.4,11.7-29.6,13.3-42.4,4.7
		c-6.9-4.5-11.2-12.1-12.9-20c-2.5-10.8-0.7-22.9,5.9-32C917.2,76,924.7,72,932.5,70.8 M932.5,73.8c-7,1.1-13.7,4.9-17.8,10.8
		c-5.9,8.1-7.3,18.9-5.4,28.6c1.4,8,6,15.5,13.1,19.7c11.4,6.7,27.7,5.4,36.8-4.6c7-7.5,9-18.3,7.8-28.2c-0.8-7.6-4.1-15-10-20
		C950.4,74.2,941,72.3,932.5,73.8z"/>
	<path class="st0" d="M1296.2,72.2c4.2-1,8.6-0.3,12.8-0.5c6.7-0.2,13.9-0.2,19.8,3.3c7.2,4.1,11.5,11.9,13.2,19.8
		c2,9,1.3,18.6-2.1,27.1c-2.8,6.9-8.5,13-15.8,15.2c-6.6,2-13.5,1-20.2,1.3c-2.8-0.1-6,0.5-8.5-1.1c-1-1.6-0.9-3.6-1-5.5
		c0.1-18.3,0-36.6,0-55C1294.6,75.4,1294.5,73,1296.2,72.2 M1297.5,74.8c0,20.2,0,40.5,0,60.7c6.1,0,12.3,0,18.4,0
		c4.7,0,9.6-1.2,13.4-4.2c5.8-4.3,9-11.2,10.2-18.2c1.4-8.5,0.8-17.6-3-25.5c-3.2-6.7-9.8-12.1-17.4-12.7
		C1311.9,74.5,1304.7,74.9,1297.5,74.8z"/>
	<path class="st0" d="M702.2,96.3c1.7-1,4.3-0.8,5.1,1.3c3.5,6.6,6.7,13.3,10.2,19.8c0.7,1.8,2.6,4.2,0.9,6
		c-1.7,1.7-4.2,1.3-6.4,1.4c-6.4-0.2-12.8,0.2-19.1-0.1c-2.3,0.2-4.4-2.4-3.2-4.5c2.8-6.5,6.5-12.5,9.5-18.8
		C700.1,99.6,700.8,97.7,702.2,96.3 M692,121.8c8.1,0,16.2,0,24.3,0c-3.8-7.9-8.1-15.5-11.9-23.4C699.7,105.8,696.2,114,692,121.8z"
		/>
	<path class="st0" d="M210.2,129.3c1,0.3,2,0.6,3.1,0.9l0.3,0.3l0.4,0.1c0.4,0.1,1.2,0.4,1.6,0.5c1.1,1.6,3,1.9,4.8,1.9
		c1.1,0.1,2.3,0.3,3.4,0.6c1,0.6,2,1.2,3,1.8c1.3,0.7,2.6,1.4,4,2c1,0.7,2,1.4,3.1,2c5.2,3.8,10.5,8.1,13.6,13.9
		c-3.5,3.9-6.5,8.4-10.1,12.2c-3.6,3.4-6,7.9-9.8,11.1c-2.1-0.6-3.9-1.6-5.7-2.8l-0.2-0.2l-0.3-0.2c-0.9-0.5-1.9-1.1-2.8-1.6
		c-2.8-3.2-6.6-5.4-9.2-8.7c-4.7-5.6-8.8-11.8-12.7-18c0.2,0.4,0.7,1.1,0.9,1.4c7.7,1.8,15.5,3,23.2,4.6c-1.8-4.3-3.9-8.5-5.7-12.9
		C213.6,135.1,212.8,131.6,210.2,129.3z"/>
	<path class="st0" d="M380.4,130.9l0.6,0.1c0.8,0,2.3-0.1,3.1-0.1c-2.5,6.9-5.6,13.6-8.5,20.3c7.4-1,14.7-4,22.3-3.1
		c-5,9-11.1,17.9-20,23.4l-0.2,0.1l-0.2,0.2c-2.8,2.2-6,3.8-9.1,5.4c-0.7-0.9-1.5-1.9-2.2-2.9c-4.4-5.8-8.8-11.8-13.9-17.1
		c-1.2-1.5-2.4-3-3.5-4.5c3.8-5.2,8.4-9.8,13.7-13.4c1.4-0.9,2.8-1.8,4.1-2.7c0.7-0.3,2.1-0.8,2.8-1.1l0.3-0.1l0.2-0.2
		c1.2-0.7,2.4-1.4,3.6-2.1c0.6,0,1.8-0.1,2.5-0.1C377.4,132.8,379.8,132.9,380.4,130.9z"/>
	<path class="st1" d="M1210.5,199.7c12.3-1.6,25.5,0.5,35.6,8c9.6,7.1,15.3,18.4,16.6,30.1c1,9.2,0.6,18.6-1.4,27.6
		c-2.3,10.2-7.8,20.3-16.8,26c-9.7,6.6-22,7.8-33.4,6.6c-11.4-1-22.6-6.6-29.1-16.2c-7.2-10.4-9.1-23.6-8.8-36
		c-0.4-12.2,3.5-24.8,12-33.8C1191.8,205.2,1201.1,201,1210.5,199.7 M1210.5,211.6c-9.4,2-17.5,9.1-21,18c-3.5,8-3.3,16.9-2.7,25.4
		c1,9.4,4.4,19.2,11.8,25.5c7.7,6.8,18.9,7.9,28.6,5.5c8.1-1.9,15-7.7,18.5-15.2c3.9-8.3,4.6-17.7,4.3-26.8
		c-0.3-10.3-4.4-20.9-12.8-27.2C1229.6,211.1,1219.6,209.5,1210.5,211.6z"/>
	<path class="st1" d="M1471.4,203.4c16.9-7.7,39.2-5,51.6,9.6c-3,2.6-5.8,5.5-9,7.9c-2.2-1.3-3.8-3.5-6-4.9c-7-4.7-16-6.1-24.2-4.3
		c-3.9,0.8-7.7,2.7-10.4,5.7c-4.2,4.3-3.8,11.8,0.1,16.1c4.8,4.7,11.5,6.4,17.7,8.2c9,2.3,18.6,4.1,26.1,10
		c11.2,8.3,11.5,26.8,1.6,36.2c-6.1,6.1-14.6,9-22.9,10.1c-8.1,1.2-16.6,0.4-24.1-2.9c-7.9-3.5-14.3-9.9-18.1-17.7
		c3.6-1.9,7.2-3.8,10.9-5.7c3.9,7.3,10.6,13.6,19.1,14.7c8.3,1,17.7,0.2,24.5-5.2c6.1-4.7,6.7-15.4,0.2-20
		c-8.4-6-18.9-7.2-28.5-10.2c-6.8-2.2-13.7-5.4-18.2-11.2c-4.3-5.2-4.9-12.4-4.2-18.9C1458.7,213.2,1464.4,206.7,1471.4,203.4z"/>
	<path class="st1" d="M1090.5,201c25.5,0,51,0,76.5,0c-1.2,3.8-2.5,7.7-3.7,11.5c-9.4,0-18.8-0.1-28.2,0.1c0.1,28.1,0.1,56.1,0,84.2
		c-4.2,0-8.5,0-12.7,0c0-28.1,0-56.2,0-84.2c-10.7,0-21.3,0-32,0C1090.5,208.6,1090.5,204.8,1090.5,201z"/>
	<path class="st1" d="M1277.4,201.1c4.3-0.2,8.5-0.1,12.8-0.1c0,16,0,32,0,48c0.2,9-0.8,18.5,2.7,27.1c2.7,6.7,10,10.2,16.9,10.7
		c8.2,0.7,17.9,0.4,24-5.9c5.8-6,6-15,6.4-22.9c0.1-19,0.1-37.9,0-56.9c4.3-0.1,8.5-0.1,12.8-0.1c0,17,0,34,0,51.1
		c-0.1,10.6-0.3,21.9-5.6,31.4c-3.9,7.3-11.5,12.1-19.5,13.8c-7.8,1.6-15.9,1.6-23.8,0.4c-7.6-1.3-15.1-4.8-19.7-11.2
		c-5.3-7.3-6.4-16.7-7-25.5C1277.4,241,1277.6,221.1,1277.4,201.1z"/>
	<path class="st1" d="M1368.5,201c14.8,0,29.7,0,44.5,0c8,0.1,16.3,3.2,21.3,9.6c5.7,7,6.7,16.9,4.8,25.5
		c-1.4,6.7-5.7,12.8-11.7,16.2c-4.1,2.4-8.9,3.3-13.6,3.9c7.6,9.5,15.2,19,22.8,28.4c1.8,2.7,5.2,3.2,8.2,3.3c0,3,0,6,0.1,9
		c-3.6,1.3-7.7,2.5-11.4,0.7c-4.3-2.1-7.3-6.1-10.3-9.7c-7.6-9.4-15.1-18.9-22.8-28.2c-4.8-5.3-12.7-2.9-19-3.4c0,13.5,0,27,0,40.5
		c-4.2,0-8.4,0-12.7,0C1368.4,264.9,1368.5,232.9,1368.5,201 M1381.2,212.6c0.1,10.6,0.1,21.2,0,31.9c9.3,0.2,18.6,0,27.9,0.1
		c4.7,0,9.9-0.6,13.6-3.8c3.5-3.2,4.5-8.2,4.6-12.8c-0.1-4.2-1-8.9-4.3-11.9c-3.5-3.1-8.4-3.7-12.9-3.6
		C1400.4,212.6,1390.8,212.4,1381.2,212.6z"/>
	<path class="st0" d="M720.5,340.7c7.7-1.8,16.6-0.4,22.5,5.2c5,4.6,7,11.5,7,18.1c0.1,7.5-1.4,15.7-7,21.1c-6.3,5.9-16,6.8-24,4.7
		c-7-1.8-12.4-7.8-14-14.7c-1.7-7-2-14.6,0.5-21.4C708,347.1,713.8,342.1,720.5,340.7 M721.4,346.6c-6.2,2-10.3,8.2-10.8,14.6
		c-0.5,6.2,0.1,13.1,4,18.3c6,8.1,20.4,7.4,25.6-1.3c2.7-4.5,3.2-10,3-15.1c-0.1-4.8-1.8-9.7-5.3-13.1
		C733.6,345.8,727,344.7,721.4,346.6z"/>
	<path class="st0" d="M763.9,341.9c1.8-1,4-1.3,6-1.9c3.5,13.1,7,26.3,10.5,39.4c4-10.8,6.9-21.9,10.4-32.9c3-0.1,5.9-0.1,8.9,0
		c3.2,10.9,6.7,21.8,10,32.7c1.2-2.6,1.8-5.4,2.5-8.1c2.7-10.4,5.6-20.7,8.2-31.1c2.1,0.5,4.2,1,6.3,1.6
		c-4.2,16.1-8.6,32.2-12.8,48.4c-2.6,0-5.2,0-7.8-0.1c-3.4-12.4-8.3-24.3-10.8-36.9c-3.2,12.5-7.4,24.7-11.2,37
		c-2.6,0-5.2,0-7.8-0.1C772.5,373.8,767.8,358,763.9,341.9z"/>
	<path class="st0" d="M1131.9,341.6c2.1-0.4,4.3-1.7,6.4-1.2c5,7.3,9.2,15.3,14.6,22.4c5-7.5,9.6-15.2,14.4-22.8
		c2.1,0.5,4.2,1.1,6.4,1.6c-4.9,7.5-9.7,15.1-14.5,22.7c-0.9,1.4-2,2.7-3.1,3.9c-0.1,7.2,0,14.5-0.1,21.7c-2.2,0-4.3,0-6.4,0
		c-0.2-7.2,0.1-14.5-0.2-21.7C1142.9,359.9,1137.7,350.6,1131.9,341.6z"/>
	<path class="st0" d="M1718.4,340.5c7.7-1.6,16.6,0,22.3,5.7c4.9,4.8,6.8,12,6.6,18.7c-0.1,7.2-1.7,15-7.1,20.2
		c-6.4,5.9-16.1,6.7-24.2,4.5c-7-1.9-12.3-7.9-13.8-14.9c-1.7-7.4-2-15.5,1.2-22.5C1706.1,346.2,1711.9,341.8,1718.4,340.5
		 M1718.5,346.6c-6.1,2-10,8.1-10.6,14.4c-0.6,6.2,0,13,3.8,18.2c5.9,8.2,20.2,7.7,25.6-0.9c2.8-4.5,3.3-10.1,3.2-15.4
		c-0.1-5.1-2-10.3-6-13.7C1730.1,345.6,1723.8,344.8,1718.5,346.6z"/>
	<path class="st0" d="M1878.4,343.2c8.7-5.3,21.2-4.1,28,3.7c-1.5,1.3-3,2.7-4.5,4c-4.9-5.3-13.8-7.1-19.8-2.8
		c-3.4,2.2-3.5,7.7-0.3,10.1c6.4,4.6,15.2,3.6,21.4,8.5c6.2,4.5,6,15,0,19.6c-5.4,4.2-12.8,5.2-19.4,3.9c-5.6-1.1-10.1-5.1-12.9-10
		c1.8-1,3.6-2,5.4-3c2.1,3.2,4.8,6.3,8.7,7.3c4.7,1,10.1,0.6,14-2.5c3.4-2.5,3.4-8.6-0.4-10.7c-7.1-4.5-16.9-3.4-22.9-10
		C1871.1,356.1,1872.3,346.9,1878.4,343.2z"/>
	<path class="st0" d="M653,340.8c7.7,0,15.3,0,23,0c4.9-0.1,10,2.5,12.1,7.1c2.3,5.2,2.3,11.3,0.1,16.5c-1.9,4.3-6.5,7-11.2,7.1
		c-5.9,0.2-11.8,0-17.7,0c0,6.2,0,12.3,0,18.5c-2.1,0-4.2,0-6.2,0C653,373.6,653,357.2,653,340.8 M659.3,346.5
		c-0.1,6.3,0,12.6-0.1,18.9c5.9,0,11.8,0.3,17.7-0.1c9.1-1.4,8.7-17.5-0.4-18.6C670.8,346.2,665,346.6,659.3,346.5z"/>
	<path class="st0" d="M842,340.8c11.8,0,23.5,0,35.3,0c-0.6,1.9-1.3,3.8-1.9,5.7c-9,0-18,0.1-27-0.1c-0.2,4.9-0.1,9.7-0.1,14.5
		c8.1,0,16.2,0,24.3,0c0,1.9-0.1,3.9-0.1,5.8c-8.1-0.1-16.1-0.1-24.2,0c0,5.8,0,11.6,0,17.4c9.6,0,19.2,0,28.7,0c0,1.9,0,3.9,0,5.8
		c-11.7,0-23.3,0-35,0C842,373.6,842,357.2,842,340.8z"/>
	<path class="st0" d="M891.8,340.8c7.4,0,14.8,0,22.2,0c4.2,0,8.7,1.5,11.4,4.9c4.7,6.2,3.8,16.4-2.8,20.9c-2.3,1.6-5.1,2-7.7,2.6
		c3.9,4.7,7.6,9.6,11.5,14.4c1,1.5,2.8,1.7,4.4,2.2c0,1.4,0.1,2.9,0.1,4.3c-2.6,0.8-5.7,1.1-7.7-1.2c-5.7-5.8-10.1-12.6-15.5-18.6
		c-2.7-2.2-6.4-1.1-9.6-1.4c0,7,0,14,0,21c-2.1,0-4.2,0-6.2,0C891.8,373.6,891.7,357.2,891.8,340.8 M898,346.5c0,5.6,0,11.2,0,16.7
		c6-0.2,12,0.4,18-0.3c8-1,8.3-15.5-0.1-16.3C910,346.3,904,346.6,898,346.5z"/>
	<path class="st0" d="M946.2,340.8c11.8-0.2,23.5,0,35.3-0.1c-0.6,1.9-1.3,3.8-1.9,5.8c-9,0-18.1,0-27.1,0c0,4.8,0,9.7,0,14.5
		c8.1,0,16.2,0,24.3,0c0,1.9,0,3.8,0,5.7c-8.1,0-16.1,0-24.2,0c0,5.8,0,11.7,0,17.5c9.6,0,19.1,0,28.7,0c0,1.9,0,3.9,0.1,5.8
		c-11.7,0-23.4,0-35.1,0C946.3,373.6,946.3,357.2,946.2,340.8z"/>
	<path class="st0" d="M996.2,340.8c7.9,0,15.8-0.1,23.7,0c6.4,0.2,12.1,4.7,14.6,10.5c3,7.1,3,15.1,1.9,22.6
		c-0.8,5-2.9,10.2-7.3,13.1c-3.2,2.3-7.1,3-11,3c-7.3,0-14.6,0-21.8-0.1C996.3,373.6,996.2,357.2,996.2,340.8 M1002.5,346.5
		c0,12.6,0,25.2,0,37.7c5.8-0.2,11.7,0.3,17.5-0.2c4.6-0.5,8-4.6,9-9c1.4-6.3,1.4-12.9-0.2-19.1c-1.1-4.6-4.9-9-9.9-9.3
		C1013.4,346.3,1008,346.6,1002.5,346.5z"/>
	<path class="st0" d="M1082.8,340.8c7.1,0,14.1-0.1,21.2,0c4.6,0.1,9.5,2.2,11.6,6.6c2.7,5.5,1.1,12.4-3.6,16.3
		c2.7,1.7,5.5,3.6,6.8,6.6c2.2,5.3,1.3,12.2-3.2,16c-3.4,2.9-8.1,3.7-12.5,3.7c-6.7,0-13.5,0-20.2,0
		C1082.8,373.6,1082.7,357.2,1082.8,340.8 M1089,346.5c0,5,0,10,0,15c5.5-0.3,11.2,0.9,16.5-1c5.6-1.9,6.5-11.9,0.4-13.6
		C1100.3,346,1094.6,346.7,1089,346.5 M1089,367.2c-0.1,5.7,0,11.3,0,17c5,0,9.9,0,14.9,0c2.5-0.1,5.4-0.2,7.2-2.2
		c3.3-4.7,2-13.4-4.5-14.5C1100.8,366.9,1094.9,367.4,1089,367.2z"/>
	<path class="st0" d="M1232.3,340.8c2.6,0,5.3-0.1,7.9-0.1c6.5,16.4,12.9,32.9,19.3,49.3c-2.2,0-4.4,0-6.6,0c-1.9-5-3.8-10-5.8-15
		c-7,0-14-0.1-20.9,0c-1.7,5-3.6,9.9-5.3,14.9c-2.3,0-4.6,0-6.8,0.1C1220.1,373.6,1226.3,357.2,1232.3,340.8 M1228.1,369.7
		c5.6,0,11.3,0,16.9,0c-2.9-8.1-6.7-15.9-8.6-24.3C1234.3,353.8,1231,361.7,1228.1,369.7z"/>
	<path class="st0" d="M1273.4,389.9c0.2-16.4-0.1-32.8,0.2-49.2c2,0,4.1,0,6.2,0.1c0,14.5,0,29,0,43.5c8.1,0,16.2,0,24.3,0
		c-0.6,1.9-1.2,3.8-1.8,5.8C1292.6,389.9,1283,390.1,1273.4,389.9z"/>
	<path class="st0" d="M1347.8,340.8c7.1,0,14.1-0.1,21.2,0c4.9,0,10.1,2.5,11.9,7.3c2.3,5.4,0.6,11.9-3.9,15.6
		c2.6,1.7,5.5,3.5,6.7,6.6c2.2,5.3,1.3,12.2-3.2,16.1c-3.4,2.9-8.1,3.7-12.4,3.7c-6.8,0-13.5,0-20.2,0
		C1347.8,373.6,1347.7,357.2,1347.8,340.8 M1354,346.5c0,5,0,10,0,15c5.6-0.4,11.6,1.1,17-1.2c5.5-2.4,5.7-12.9-1.1-13.6
		C1364.6,346.2,1359.3,346.6,1354,346.5 M1354,367.2c-0.1,5.7,0,11.4,0,17c5,0,10,0,14.9,0c2.5-0.1,5.4-0.2,7.2-2.2
		c3.3-4.7,2-13.4-4.5-14.5C1365.8,366.9,1359.9,367.5,1354,367.2z"/>
	<path class="st0" d="M1397.3,390c6.2-16.4,12.2-32.9,18.4-49.3c2.6,0,5.3,0.1,8,0.2c6.3,16.4,12.7,32.7,19.2,49.1
		c-2.2,0-4.5,0.1-6.7,0.1c-2-5-3.8-10.1-5.8-15.1c-7,0.1-13.9-0.1-20.9,0.2c-1.7,5-3.6,9.9-5.3,14.9
		C1401.8,390,1399.5,390,1397.3,390 M1411.3,369.7c5.7,0,11.3,0,17,0c-3-8-6.6-15.9-8.7-24.2
		C1417.6,353.8,1414.2,361.7,1411.3,369.7z"/>
	<path class="st0" d="M1456.8,340.8c7.4,0,14.8,0,22.3,0c3.8,0,7.6,1.2,10.4,3.8c5.8,6,5.2,17.3-1.9,22.1c-2.3,1.6-5.1,2-7.7,2.5
		c3.9,4.8,7.6,9.7,11.6,14.5c1,1.5,2.8,1.7,4.3,2.1c0,1.5,0,2.9,0.1,4.4c-2.7,0.8-5.8,1-7.8-1.3c-5.6-5.8-10.1-12.6-15.5-18.6
		c-2.7-2.1-6.4-1.1-9.5-1.3c0,7,0,14,0,21c-2.1,0-4.2,0-6.2,0C1456.8,373.6,1456.7,357.2,1456.8,340.8 M1463,346.5
		c0,5.6,0,11.2,0,16.7c6-0.2,12.1,0.4,18-0.3c8-1.1,8.2-15.6-0.2-16.3C1474.9,346.3,1469,346.6,1463,346.5z"/>
	<path class="st0" d="M1508.3,390c6.2-16.4,12.2-32.9,18.4-49.3c2.6,0,5.1,0,7.7,0c6.7,16.3,12.8,32.9,19.4,49.3
		c-2.2,0-4.4,0-6.6,0.1c-2.2-4.9-3.4-10.3-6.1-14.9c-6.9-0.2-13.8-0.2-20.7,0.1c-1.6,5-3.5,9.9-5.3,14.9
		C1512.8,390,1510.5,390,1508.3,390 M1530.5,345.8c-1.9,8.3-5.3,16-8.2,24c5.6,0,11.2,0,16.9,0
		C1536.4,361.7,1532.9,353.9,1530.5,345.8z"/>
	<path class="st0" d="M1583.1,340.7c2.6,0,5.3,0,8,0c6.4,16.4,12.8,32.8,19.2,49.2c-2.2,0-4.4,0-6.6,0.1c-2-5-3.8-10-5.8-15
		c-6.9,0-13.9,0-20.8,0c-1.8,5-3.7,9.9-5.4,14.9c-2.3,0.1-4.6,0.1-6.9,0.1C1570.8,373.6,1577,357.2,1583.1,340.7 M1578.9,369.8
		c5.6,0,11.3,0,16.9,0c-3-7.9-6.6-15.6-8.6-23.9C1584.9,354,1581.7,361.8,1578.9,369.8z"/>
	<path class="st0" d="M1650,340.8c13,0,26.1,0,39.1,0c-0.6,1.9-1.2,3.8-1.8,5.7c-4.8,0.1-9.7,0-14.5,0.1c0,14.5,0,29,0,43.5
		c-2.1,0-4.2-0.1-6.3-0.1c0.1-14.5,0-28.9,0.1-43.4c-5.5,0-11,0-16.4,0C1650,344.6,1650,342.7,1650,340.8z"/>
	<path class="st0" d="M1763.2,340.8c2.1,0,4.1-0.1,6.2-0.1c0.2,10.4,0,20.8,0.1,31.2c0.1,4.2,0.9,9.3,5,11.4
		c4.7,2.2,10.4,2.2,15.1,0.3c4.5-2,5.6-7.3,5.8-11.7c0.2-10.4-0.1-20.9,0.2-31.3c2,0.1,4.1,0.1,6.2,0.1c-0.1,10.1,0,20.1-0.1,30.2
		c-0.3,5.4-1.2,11.4-5.3,15.3c-4.3,4.1-10.7,4.7-16.4,4.4c-5-0.3-10.4-2.1-13.3-6.4c-2.8-4.2-3.3-9.4-3.4-14.3
		C1763.2,360.3,1763.3,350.5,1763.2,340.8z"/>
	<path class="st0" d="M1818.8,340.8c7.4,0,14.9,0,22.3,0c3.7,0,7.6,1.2,10.3,3.8c5.8,6,5.2,17.2-1.8,22.1c-2.3,1.6-5.1,2-7.7,2.6
		c3.9,4.7,7.6,9.7,11.5,14.4c1,1.5,2.8,1.7,4.4,2.2c0,1.5,0,2.9,0.1,4.4c-2.7,0.7-5.8,1-7.7-1.3c-5.7-5.8-10.1-12.6-15.5-18.6
		c-2.7-2.2-6.4-1.1-9.6-1.3c0,7,0,14,0,21c-2.1,0-4.2,0-6.2,0C1818.7,373.6,1818.7,357.2,1818.8,340.8 M1825,346.5
		c0,5.6,0,11.2,0,16.7c6-0.2,12.1,0.4,18.1-0.3c8-1.2,8.1-15.5-0.1-16.3C1837,346.2,1831,346.6,1825,346.5z"/>
</g>
<g id="_x23_fefefefe">
	<path class="st2" d="M277.4,12.2c-0.5-3.1,3.9-1.2,5.5-0.8C281.1,12.1,279.2,12.4,277.4,12.2z"/>
	<path class="st2" d="M308.2,10.2c0.2,0.2,0.5,0.5,0.6,0.6l-0.6,0L308.2,10.2z"/>
	<path class="st2" d="M267.2,11.1C267.8,11.9,267.8,11.9,267.2,11.1z"/>
	<path class="st2" d="M272,13.1c-0.3-1.8,4.1-2.4,4.4-0.8C275,12.8,273.5,13.1,272,13.1z"/>
	<path class="st2" d="M319.9,12.3c1.5-1.1,2.5-0.8,3,0.7C321.9,13.2,320.9,12.9,319.9,12.3z"/>
	<path class="st2" d="M267,13.5c1.3-1.1,2.6-1.1,4-0.1c-1.2,0.5-2.5,0.9-3.9,0.8L267,13.5z"/>
	<path class="st2" d="M264.3,14.1c0.5,0,1.4,0.1,1.9,0.1c-0.5,0.2-1.5,0.6-2,0.8L264.3,14.1z"/>
	<path class="st2" d="M272.7,13.9c0.2,0.9,0.5,1.7,0.7,2.6c15-3,30.6-3.3,45.7-0.6c1.4,0.4,3,0.3,4,1.4l0.2,0.5l0.5-0.1l0-0.6
		c3-0.4,5.8,1.8,8.9,1.8c1.1,0.8,2.3,1.5,2.5,2.9l0.7,0l0.2-1.4c2.7,1.6,7.1,1.8,8,5.3c0.9,1.2,2.4,1.2,3.7,0.7
		c1.9,1.3,3.8,2.6,5.7,3.9l-1.6,0.7c1.2,1.9,4.1,2.4,5.9,3.9c2.2,2.2,4,4.9,5,7.9l-1,0.3c-0.1,0.1-0.4,0.3-0.5,0.4
		c-1.6,2.1-4,3.5-5.4,5.8c-0.5-0.6-0.9-1.2-1.4-1.8c-0.5,0.4-1.4,1.3-1.8,1.8c0.7,0.6,1.3,1.2,2,1.8c-0.9-0.1-2.6-0.2-3.4-0.3
		c-0.2,1.3-1,2.2-2.2,2.9c-8.7,5.5-17.2,11.3-25.9,16.8c3-15,5.9-30,8.6-45c-8.1,12.8-15.7,25.8-23.5,38.8
		c-3.5-14.8-6.6-29.7-10.2-44.5c-3.6,14.4-6.6,29-10,43.4c-7.5-12.9-14.4-26.1-22.2-38.8c2.2,15.5,5.1,30.9,7.6,46.4
		c-9-5.9-18-11.6-26.9-17.6c-1.8-1-2.8-2.8-3.7-4.6l-2.3,1.7l1.6-2.2c-0.4-0.4-1.2-1.3-1.7-1.7l-0.5,0.7c3.2,2.9-2.6,1.8-3.8,2.2
		c1.1,1.2,2.1,2.5,3.1,3.8c-1.5-1.3-3.1-2.6-4.7-3.7c-0.5-0.2-1.6-0.6-2.1-0.8c-0.6-1.6-1.8-3.1-3.7-2.8c-0.5-1.4-0.9-2.8-1.8-4
		c0.7,0,2.2,0.1,3,0.2l-1.2-1.2c1.3-2.2,2.6-4.7,5.1-5.8c0.8,0.6,1.7,1.2,2.5,1.7c1-3.4,4.4-5.2,6.9-7.4c0.4,0.1,1.3,0.4,1.8,0.5
		l0.2-0.6c0.6-0.3,1.8-0.9,2.4-1.1l0.8-0.4c-0.2-0.4-0.7-1.2-0.9-1.6c2.7-1.2,5-2.9,7.5-4.4c0.4,0.2,1.1,0.7,1.5,1l1,0
		c-0.3-0.5-0.9-1.6-1.2-2.1c0.7-0.1,2.1-0.2,2.8-0.2L259,22l1.2,0c-0.3-0.6-0.8-1.9-1.1-2.5c0.8,0.4,2.3,1.2,3.1,1.6
		c-0.2-0.5-0.6-1.6-0.8-2.1c1.4-0.2,3.2,0.4,4.1-1.2c2.5,0,4.8-0.7,7.3-1C272.7,16.1,272.7,14.7,272.7,13.9 M254.2,23.2l0,0.7l0.7,0
		l0-0.7L254.2,23.2 M348.2,28.2l0,0.7l0.7,0l0-0.7L348.2,28.2 M357.2,36.2l0,0.7l0.7,0l0-0.7L357.2,36.2 M360.2,40.2l0,0.7l0.7,0
		l0-0.7L360.2,40.2z"/>
	<path class="st2" d="M328.2,14.3c1.5-1,2.4-0.8,2.8,0.8C329.9,15.3,329,15,328.2,14.3z"/>
	<path class="st2" d="M261.1,15.1c0.4,0,1.3,0,1.8,0c-0.5,0.2-1.4,0.7-1.9,0.9L261.1,15.1z"/>
	<path class="st2" d="M332.1,15.1c0.4,0,1.3,0,1.8,0L334,16C333.5,15.8,332.6,15.4,332.1,15.1z"/>
	<path class="st2" d="M258.2,16.2c0.5,0,1.5-0.1,1.9-0.2c0.6,1.7-1.4,1.8-2.3,0.9L258.2,16.2z"/>
	<path class="st2" d="M334.5,16.4c1.2-1,4.5,0,4.5,1.6C337.4,18,335.8,17.3,334.5,16.4z"/>
	<path class="st2" d="M256.4,17.3c0.1,0,0.2-0.1,0.3-0.1C256.6,17.2,256.5,17.3,256.4,17.3z"/>
	<path class="st2" d="M246.3,22.4c0.1,0,0.2-0.1,0.3-0.2C246.5,22.3,246.4,22.4,246.3,22.4z"/>
	<path class="st2" d="M243.2,25c-0.1-1.5,0.6-2.2,2.2-1.9C245.2,24.2,244.4,24.8,243.2,25z"/>
	<path class="st2" d="M350.2,23.2c0.1,0.1,0.2,0.2,0.3,0.2C350.5,23.4,350.3,23.3,350.2,23.2z"/>
	<path class="st2" d="M195,24.1c5.3-0.2,10.7-0.1,16,0v0.7c-5.3-0.3-10.6-0.4-15.9,0.1L195,24.1z"/>
	<path class="st2" d="M378.7,24.9c0.5-0.2,1.6-0.6,2.1-0.8c7-0.1,14.1,0,21.1,0c1.4-0.1,2.8,0.1,4,0.9
		C396.9,24.4,387.8,24.4,378.7,24.9z"/>
	<path class="st2" d="M409.2,25.4c2,0,6.1-1.8,6.8,0.7C413.7,26.6,411.4,26.2,409.2,25.4z"/>
	<path class="st2" d="M235.4,30.4C236,31,236,31,235.4,30.4z"/>
	<path class="st2" d="M145.3,32.2l1-0.4l0.8,0.5c-0.5,0.2-1.5,0.6-1.9,0.8L145.3,32.2z"/>
	<path class="st2" d="M232.1,35.2c-0.2-1.5,1.6-3.2,3.1-3.2C235.2,33.5,233.5,35.3,232.1,35.2z"/>
	<path class="st2" d="M451,33.2l0.7-0.5l1,0.4L453,34C452.5,33.8,451.5,33.4,451,33.2z"/>
	<path class="st2" d="M362.1,34.2c1.4-0.1,2,0.5,1.7,1.9C362.5,36.2,362,35.5,362.1,34.2z"/>
	<path class="st2" d="M454.1,34.1l0.8-0.5l1,0.4L456,35C455.6,34.8,454.6,34.4,454.1,34.1z"/>
	<path class="st2" d="M226.2,35.2C226.9,35.8,226.9,35.8,226.2,35.2z"/>
	<path class="st2" d="M457.1,35.2l0.8-0.5l1,0.5L459,36C458.6,35.8,457.6,35.4,457.1,35.2z"/>
	<path class="st2" d="M229.2,36.2C229.8,36.8,229.8,36.8,229.2,36.2z"/>
	<path class="st2" d="M480.2,37.8c-0.3-1.3,0.3-1.9,1.6-1.7C482.1,37.5,481.5,38,480.2,37.8z"/>
	<path class="st2" d="M364.2,37.2C364.7,37.8,364.7,37.8,364.2,37.2z"/>
	<path class="st2" d="M128.3,38.5c0.1-0.1,0.4-0.2,0.5-0.2l-0.3,0.2L128.3,38.5z"/>
	<path class="st2" d="M365.3,39.3c1.2-0.6,2.6,1.4,1.7,2.4C365.8,42.3,364.7,40.2,365.3,39.3z"/>
	<path class="st2" d="M121.3,41.7c0.2-0.1,0.5-0.3,0.7-0.4l-0.3,0.3L121.3,41.7z"/>
	<path class="st2" d="M477.3,43.2c0.1,0,0.2,0.1,0.3,0.2C477.6,43.4,477.4,43.3,477.3,43.2z"/>
	<path class="st2" d="M479.4,44.3c0.1,0.1,0.3,0.2,0.4,0.2l-0.2-0.1L479.4,44.3z"/>
	<path class="st2" d="M481.3,45.3c0.1,0.1,0.4,0.2,0.5,0.2l-0.3-0.1L481.3,45.3z"/>
	<path class="st2" d="M228.5,49c-1.4-0.5-2.1-4.1,0.2-3C229.1,47.1,229,48.1,228.5,49z"/>
	<path class="st2" d="M483.5,46.2c0.1,0,0.2,0.1,0.2,0.1C483.6,46.3,483.5,46.3,483.5,46.2z"/>
	<path class="st2" d="M109.2,47.3c0.1,0,0.2-0.1,0.2-0.1C109.4,47.2,109.3,47.3,109.2,47.3z"/>
	<path class="st2" d="M485.5,47.2c0.1,0,0.2,0.2,0.3,0.2C485.7,47.3,485.6,47.2,485.5,47.2z"/>
	<path class="st2" d="M107.2,48.5c0.1-0.1,0.2-0.2,0.3-0.2C107.5,48.3,107.3,48.4,107.2,48.5z"/>
	<path class="st2" d="M487.2,48.3c0.1,0.1,0.4,0.2,0.6,0.3l-0.3-0.1L487.2,48.3z"/>
	<path class="st2" d="M489.4,49.3c0.1,0,0.2,0.1,0.2,0.1C489.5,49.4,489.4,49.3,489.4,49.3z"/>
	<path class="st2" d="M100.3,52.3c0,0,0.1-0.1,0.2-0.1C100.4,52.3,100.3,52.3,100.3,52.3z"/>
	<path class="st2" d="M494.2,52.3c0.1,0.1,0.4,0.2,0.6,0.3l-0.3-0.1L494.2,52.3z"/>
	<path class="st2" d="M235.3,53c2.4,0-1.4,3.8-1.3,1.3C234.3,54,234.9,53.3,235.3,53z"/>
	<path class="st2" d="M497.4,54.2c0.1,0,0.3,0.2,0.4,0.2l-0.2-0.1L497.4,54.2z"/>
	<path class="st2" d="M85.2,62.4c0.1,0,0.1-0.1,0.2-0.1C85.4,62.3,85.3,62.3,85.2,62.4z"/>
	<path class="st2" d="M217.4,62.2l1-0.4l0.8,0.5c-0.5,0.2-1.4,0.6-1.9,0.8L217.4,62.2z"/>
	<path class="st2" d="M224.2,62.4c1.6,0.6,1.4,4.8,0.2,5.5C224.3,66.1,223.2,64,224.2,62.4z"/>
	<path class="st2" d="M381.8,64.3l0.8-0.5l1,0.4l0.1,0.9C383.2,64.9,382.2,64.5,381.8,64.3z"/>
	<path class="st2" d="M206.5,66.8c0.1,0,0.2-0.1,0.2-0.1C206.7,66.7,206.6,66.8,206.5,66.8z"/>
	<path class="st2" d="M201.3,68.8c0.1,0,0.1-0.1,0.2-0.1C201.5,68.7,201.4,68.8,201.3,68.8z"/>
	<path class="st2" d="M343.7,69.8c0-0.1,0.2-0.3,0.2-0.4l-0.1,0.2L343.7,69.8z"/>
	<path class="st2" d="M196.5,70.8c0,0,0.1-0.1,0.2-0.1C196.6,70.7,196.6,70.7,196.5,70.8z"/>
	<path class="st2" d="M194.5,71.8c0.1-0.1,0.3-0.2,0.4-0.2l-0.2,0.1L194.5,71.8z"/>
	<path class="st2" d="M402.1,72.6c0.1,0.1,0.3,0.2,0.5,0.2l-0.2-0.1L402.1,72.6z"/>
	<path class="st2" d="M404.1,73.5c0.1,0.1,0.4,0.2,0.6,0.3l-0.3-0.1L404.1,73.5z"/>
	<path class="st2" d="M406.1,74.6c0.1,0.1,0.4,0.2,0.6,0.3l-0.3-0.1L406.1,74.6z"/>
	<path class="st2" d="M257.3,76.6c0,0,0.1,0.2,0.1,0.2C257.4,76.7,257.3,76.6,257.3,76.6z"/>
	<path class="st2" d="M412.3,77.6c0.1,0,0.2,0.1,0.2,0.1C412.5,77.7,412.4,77.7,412.3,77.6z"/>
	<path class="st2" d="M414.1,78.6c0.1,0.1,0.3,0.2,0.3,0.2C414.4,78.7,414.2,78.6,414.1,78.6z"/>
	<path class="st2" d="M178.4,79.9c0.1-0.1,0.3-0.2,0.3-0.2l-0.2,0.1L178.4,79.9z"/>
	<path class="st2" d="M176.6,80.8c0,0,0.1-0.1,0.2-0.1C176.7,80.7,176.6,80.8,176.6,80.8z"/>
	<path class="st2" d="M160.6,90.8c0.1,0,0.2-0.1,0.2-0.2l-0.1,0.1L160.6,90.8z"/>
	<path class="st2" d="M266.2,91.3c0,0.1,0.1,0.2,0.2,0.3C266.3,91.6,266.2,91.4,266.2,91.3z"/>
	<path class="st2" d="M329.6,91.8c0.1-0.1,0.2-0.3,0.3-0.4l-0.1,0.2L329.6,91.8z"/>
	<path class="st2" d="M327.6,94.8c0-0.1,0.1-0.2,0.1-0.2l-0.1,0.1L327.6,94.8z"/>
	<path class="st2" d="M269.2,96.5c0,0.1,0.1,0.3,0.2,0.3l-0.1-0.2L269.2,96.5z"/>
	<path class="st2" d="M326.6,96.7c0,0,0.1-0.2,0.1-0.2C326.7,96.6,326.6,96.7,326.6,96.7z"/>
	<path class="st2" d="M325.7,98.8c0.1-0.1,0.2-0.3,0.2-0.4l-0.1,0.2L325.7,98.8z"/>
	<path class="st2" d="M275.2,107.5c0.1,0.1,0.2,0.3,0.2,0.4l-0.1-0.2L275.2,107.5z"/>
	<path class="st2" d="M320.5,107.9c0.1-0.1,0.2-0.3,0.2-0.4C320.7,107.6,320.6,107.8,320.5,107.9z"/>
	<path class="st2" d="M276.2,109.4c0.1,0.1,0.2,0.4,0.3,0.6l-0.2-0.3L276.2,109.4z"/>
	<path class="st2" d="M319.6,109.7c0-0.1,0.1-0.2,0.1-0.2C319.7,109.5,319.7,109.6,319.6,109.7z"/>
	<path class="st2" d="M38.3,110.8c0.1-0.1,0.3-0.4,0.3-0.5l-0.1,0.3L38.3,110.8z"/>
	<path class="st2" d="M277.1,111.3c0.1,0.1,0.2,0.3,0.2,0.5l-0.1-0.2L277.1,111.3z"/>
	<path class="st2" d="M277.7,112.3c3.1,3.4,4.6,7.8,6.7,11.8c9.2,0.2,18.5,0.2,27.7,0l-0.5,0.7c-8.9,0.3-17.9,0-26.8,0.2
		c-1.8-2.8-3.4-5.7-5.1-8.6C279,115.1,278.4,113.7,277.7,112.3z"/>
	<path class="st2" d="M317.6,113.8c0.1-0.1,0.1-0.3,0.2-0.4l-0.1,0.2L317.6,113.8z"/>
	<path class="st2" d="M559.4,115.3c0.1,0.1,0.2,0.4,0.3,0.6l-0.2-0.3L559.4,115.3z"/>
	<path class="st2" d="M33.2,118.5c0-0.1,0.1-0.2,0.1-0.2C33.3,118.3,33.2,118.4,33.2,118.5z"/>
	<path class="st2" d="M31.3,121.8c0.1-0.1,0.2-0.3,0.3-0.5l-0.1,0.2L31.3,121.8z"/>
	<path class="st2" d="M30.2,123.5c0-0.1,0.1-0.2,0.1-0.2C30.3,123.3,30.2,123.4,30.2,123.5z"/>
	<path class="st2" d="M27.3,128.8c0.1-0.1,0.2-0.4,0.3-0.5l-0.1,0.2L27.3,128.8z"/>
	<path class="st2" d="M284.1,128.1c4.2,0.1,8.7-0.8,12.8,0.7c-4.2,0.1-8.4-0.2-12.6-0.1c0.2,2.3,0.5,4.6,0.3,6.9
		C283.6,133.3,284.1,130.6,284.1,128.1z"/>
	<path class="st2" d="M297,128.6c0.4-1.2,2.5-1.2,2.9,0C299.2,128.6,297.8,128.6,297,128.6z"/>
	<path class="st2" d="M300.1,128.8c3.8-1.4,7.9-0.7,11.8-0.7c0.1,2.1,0.1,4.2,0,6.3l-0.5,1.3c0-2.3,0.1-4.6,0.3-6.8
		C307.8,128.6,303.9,128.9,300.1,128.8z"/>
	<path class="st2" d="M380.9,131.1c0.4-2.1,3.4-1.6,5-1.8c-0.6,0.6-1.2,1.1-1.9,1.7C383.3,131,381.7,131,380.9,131.1z"/>
	<path class="st2" d="M26.2,130.6c0-0.1,0.1-0.2,0.1-0.2C26.3,130.5,26.2,130.6,26.2,130.6z"/>
	<path class="st2" d="M213.2,130.1l0.4,0.1l0.3,0.3l-0.4-0.1L213.2,130.1z"/>
	<path class="st2" d="M215.4,131.1c1.8-0.3,3.9,0.2,4.8,1.9C218.5,133,216.5,132.6,215.4,131.1z"/>
	<path class="st2" d="M375.8,132.9c1-1.3,2.9-2.3,4.6-1.9C379.8,132.9,377.4,132.8,375.8,132.9z"/>
	<path class="st2" d="M25.2,132.5c0-0.1,0.1-0.2,0.1-0.2C25.3,132.4,25.3,132.5,25.2,132.5z"/>
	<path class="st2" d="M24.3,134.7c0.1-0.1,0.2-0.4,0.2-0.5l-0.1,0.3L24.3,134.7z"/>
	<path class="st2" d="M369.4,135.3l0.3-0.1L369.4,135.3l-0.2,0.2L369.4,135.3z"/>
	<path class="st2" d="M23.2,136.6c0.1-0.1,0.2-0.3,0.2-0.4C23.3,136.3,23.2,136.5,23.2,136.6z"/>
	<path class="st2" d="M481.2,137.4c0.1,0.1,0.2,0.3,0.3,0.4l-0.1-0.2L481.2,137.4z"/>
	<path class="st2" d="M22.2,138.7c0-0.1,0.1-0.2,0.1-0.3C22.3,138.5,22.3,138.6,22.2,138.7z"/>
	<path class="st2" d="M112.5,139c0.1-0.1,0.3-0.3,0.4-0.4l-0.2,0.2L112.5,139z"/>
	<path class="st2" d="M309.7,140.9c0.1-0.1,0.2-0.4,0.2-0.5l-0.1,0.3L309.7,140.9z"/>
	<path class="st2" d="M483.1,140.4c0.1,0.1,0.2,0.4,0.3,0.5l-0.2-0.2L483.1,140.4z"/>
	<path class="st2" d="M485.2,143.4c0.1,0.1,0.2,0.3,0.3,0.4l-0.1-0.2L485.2,143.4z"/>
	<path class="st2" d="M288.9,145c1.7-0.3,2.4,0.4,2.1,2.1C289.9,146.8,289.2,146.1,288.9,145z"/>
	<path class="st2" d="M575.4,146.1c0.1,0.2,0.3,0.5,0.4,0.6C575.7,146.6,575.5,146.2,575.4,146.1z"/>
	<path class="st2" d="M292.8,148.5l0.6-0.6c0.3,0.2,1,0.7,1.3,1C294.3,148.7,293.3,148.6,292.8,148.5z"/>
	<path class="st2" d="M576.6,148.3c0,0.1,0.1,0.2,0.1,0.2C576.7,148.5,576.6,148.4,576.6,148.3z"/>
	<path class="st2" d="M16.1,152.1l0.9-0.2c-0.2,0.5-0.5,1.5-0.7,2l-0.5-0.7L16.1,152.1z"/>
	<path class="st2" d="M103.6,153.8c0-0.1,0.1-0.2,0.1-0.2C103.7,153.6,103.6,153.7,103.6,153.8z"/>
	<path class="st2" d="M301.4,153.5c1,5,0.9,10.2,0.1,15.2C300.9,163.7,300.9,158.6,301.4,153.5z"/>
	<path class="st2" d="M102.6,155.7c0-0.1,0.1-0.2,0.1-0.2C102.7,155.6,102.7,155.7,102.6,155.7z"/>
	<path class="st2" d="M346.4,156.6c0.1-0.2,0.2-0.5,0.3-0.7c1.7,0.7,3.4,2.3,5.5,1.4c5.1,5.2,9.5,11.3,13.9,17.1
		c-1.4-1.1-2.7-2.6-4.6-2.8c0.6,0.8,1.2,1.5,1.8,2.2l-1.5,0.6c-3.6-4.5-7.5-8.8-10.8-13.6c0-0.4-0.1-1.2-0.1-1.6
		c-0.5-0.4-1.6-1.2-2.1-1.6c-0.7,0-2.1,0.1-2.8,0.1L346.4,156.6 M351.2,158.2v0.7h0.7v-0.7H351.2z"/>
	<path class="st2" d="M579.5,156.2c0,0.1,0.1,0.4,0.2,0.5C579.7,156.6,579.6,156.3,579.5,156.2z"/>
	<path class="st2" d="M101.6,157.9c0.1-0.1,0.2-0.4,0.2-0.5l-0.1,0.2L101.6,157.9z"/>
	<path class="st2" d="M250.6,158.1l0.1,0.3l0.1,0.3C250.7,158.5,250.6,158.2,250.6,158.1z"/>
	<path class="st2" d="M100.6,159.6c0-0.1,0.1-0.2,0.1-0.2C100.7,159.4,100.7,159.5,100.6,159.6z"/>
	<path class="st2" d="M580.6,159.2c0,0.1,0.1,0.2,0.1,0.3C580.6,159.4,580.6,159.3,580.6,159.2z"/>
	<path class="st2" d="M250.1,159.9l0.9-0.4c0.2,0.6,0.5,1.7,0.7,2.2c0.3,2.3,0.6,4.7-0.3,6.9C251.4,165.7,251.9,162.5,250.1,159.9z"
		/>
	<path class="st2" d="M99.7,161.7c0-0.1,0.1-0.3,0.2-0.4l-0.1,0.2L99.7,161.7z"/>
	<path class="st2" d="M344.5,167.7c-0.8-2.1-1-4.6,0-6.7C345.7,162.8,345.6,165.8,344.5,167.7z"/>
	<path class="st2" d="M294.5,169.1c-0.8-1.6-0.8-3.5,0-5.1C295.6,165.2,295.6,167.7,294.5,169.1z"/>
	<path class="st2" d="M227.4,176.6c3.8-3.2,6.2-7.7,9.8-11.1c-0.4,0.7-1.1,2.2-1.4,2.9c1.4-0.6,2.8-1.2,4.2-1.9
		c-1.1,2.8-3.1,5.5-5.9,6.9c0.5,1.1,0.9,2.1,1.4,3.2l-1.1-2c-0.5,0.8-1.5,2.3-2.1,3.1l0,1.3c-0.4-0.1-1.3-0.2-1.7-0.3
		c1.1-1.9,4.1-3.6,2.5-6.1c-1.8,1.7-3.5,3.4-5.3,5.1l1,0.5c-0.7,0.2-2.2,0.6-2.9,0.8C226.3,178.2,226.9,177.4,227.4,176.6z"/>
	<path class="st2" d="M497.2,166.5c0.1,0.1,0.1,0.3,0.2,0.4l-0.1-0.2L497.2,166.5z"/>
	<path class="st2" d="M11.2,167.2l0.9-0.2c-0.2,0.5-0.5,1.5-0.7,2l-0.5-0.8L11.2,167.2z"/>
	<path class="st2" d="M301.4,169.2l0.5,0.2l-0.1,0.5l-0.6,0L301.4,169.2z"/>
	<path class="st2" d="M301.4,171.1l0.5,0.1l0,0.5l-0.6,0L301.4,171.1z"/>
	<path class="st2" d="M377.5,171.6l0.2-0.1L377.5,171.6l-0.2,0.2L377.5,171.6z"/>
	<path class="st2" d="M499.3,171.5c0,0.1,0.1,0.2,0.1,0.2C499.3,171.7,499.3,171.6,499.3,171.5z"/>
	<path class="st2" d="M221.2,173.4l0.3,0.2l0.2,0.2l-0.3-0.2L221.2,173.4z"/>
	<path class="st2" d="M301.4,173.2l0.5,0l0.1,0.5l-0.5,0.2L301.4,173.2z"/>
	<path class="st2" d="M92.7,176.4c0.3-0.2,1-0.7,1.4-1c-0.2,0.4-0.8,1.3-1,1.8L92.7,176.4z"/>
	<path class="st2" d="M301.2,175.4l0.5-0.3l0.3,0.5l-0.5,0.3L301.2,175.4z"/>
	<path class="st2" d="M349.2,176.8c0.7-1.5,1.2-1.4,1.6,0.2C350.4,177,349.6,176.9,349.2,176.8z"/>
	<path class="st2" d="M92.2,178.4l0.9-0.1c-0.2,0.5-0.7,1.4-1,1.8l-0.4-0.8L92.2,178.4z"/>
	<path class="st2" d="M352.9,178.4c1.3-1.1,2.2-0.8,2.7,0.7C354.5,179.4,353.6,179.2,352.9,178.4z"/>
	<path class="st2" d="M358.1,179.2l0.9-0.5c0.5,0.2,1.5,0.6,2,0.8c-0.9,0.7-1.8,0.8-2.8,0.4L358.1,179.2z"/>
	<path class="st2" d="M501.9,179.1l0.9,0.1l0.5,0.9l-0.4,0.8C502.7,180.5,502.2,179.6,501.9,179.1z"/>
	<path class="st2" d="M336.1,180.4c0-0.1,0.1-0.1,0.2-0.2C336.3,180.2,336.2,180.3,336.1,180.4z"/>
	<path class="st2" d="M91.2,181.4l0.9-0.1c-0.2,0.5-0.6,1.4-0.8,1.9l-0.5-0.8L91.2,181.4z"/>
	<path class="st2" d="M260.7,181.2c0,0.1,0.1,0.1,0.2,0.2C260.8,181.3,260.7,181.2,260.7,181.2z"/>
	<path class="st2" d="M502.9,182.3l0.9,0.2l0.4,1l-0.5,0.8C503.5,183.7,503.1,182.8,502.9,182.3z"/>
	<path class="st2" d="M88.2,195c-1-1.4-0.7-2.3,0.9-2.6c-0.1,0.6-0.2,1.8-0.3,2.4L88.2,195z"/>
	<path class="st2" d="M5.3,200.9c-0.7-1.5-1.4-5.5,0.7-5.8C6.4,197,6.1,199,5.3,200.9z"/>
	<path class="st2" d="M87.3,200c-1.2-1.4-0.9-2.4,0.8-2.8C88.2,198.2,88,199.2,87.3,200z"/>
	<path class="st2" d="M266.1,197.5c0.1,0.1,0.2,0.2,0.2,0.3l-0.1-0.2L266.1,197.5z"/>
	<path class="st2" d="M321.9,198.6c0.2-0.4,0.7-1.4,1-1.8l0.4,0.8l-0.5,0.9L321.9,198.6z"/>
	<path class="st2" d="M329.6,197.8c0-0.1,0.1-0.2,0.2-0.3l-0.1,0.1L329.6,197.8z"/>
	<path class="st2" d="M507,198.2c1.5,0.4,1.8,1.3,0.7,2.7l-0.6-0.3C507.1,200,507,198.9,507,198.2z"/>
	<path class="st2" d="M327.6,200.7c0-0.1,0.1-0.2,0.1-0.2C327.7,200.5,327.6,200.6,327.6,200.7z"/>
	<path class="st2" d="M320.3,201.4l0.1-0.1c0,0.1-0.1,0.2-0.2,0.2L320.3,201.4z"/>
	<path class="st2" d="M325.6,203.8c0-0.1,0.1-0.2,0.2-0.3l-0.1,0.2L325.6,203.8z"/>
	<path class="st2" d="M277.7,204.2c0.1,0.1,0.1,0.2,0.2,0.3C277.8,204.4,277.7,204.3,277.7,204.2z"/>
	<path class="st2" d="M318.3,204.4l0.1-0.2c-0.1,0.1-0.2,0.3-0.2,0.4L318.3,204.4z"/>
	<path class="st2" d="M273.2,208.5c0,0.1,0.1,0.3,0.2,0.4l-0.1-0.2L273.2,208.5z"/>
	<path class="st2" d="M321.6,210.8c0.1-0.1,0.2-0.3,0.2-0.4l-0.1,0.2L321.6,210.8z"/>
	<path class="st2" d="M282.7,213.1l0.1,0.2l0.1,0.2C282.8,213.4,282.7,213.2,282.7,213.1z"/>
	<path class="st2" d="M510,217.8c0.6,5.6,1,11.2,0.6,16.8l-0.5-1.3C509.8,228.2,510.1,223,510,217.8z"/>
	<path class="st2" d="M278.8,219.4l0.9,0.1l0.5,0.9l-0.4,0.8C279.6,220.8,279.1,219.9,278.8,219.4z"/>
	<path class="st2" d="M280.2,222.4c0,0.1,0.1,0.3,0.2,0.4l-0.1-0.2L280.2,222.4z"/>
	<path class="st2" d="M286.6,222.2l0.1,0.2l0.1,0.2C286.8,222.5,286.7,222.3,286.6,222.2z"/>
	<path class="st2" d="M293.3,222.2l0.2-0.3c1.2,1.6,1.2,4.4,0,6C292.8,226,292.7,224,293.3,222.2z"/>
	<path class="st2" d="M315.7,222.8c0-0.1,0.1-0.2,0.1-0.3l-0.1,0.2L315.7,222.8z"/>
	<path class="st2" d="M287.2,223.8c0.2,0.5,0.7,1.4,0.9,1.9l-0.9-0.1l-0.5-0.9L287.2,223.8z"/>
	<path class="st2" d="M288.7,227.3c0,0.1,0.1,0.2,0.1,0.3C288.8,227.5,288.7,227.4,288.7,227.3z"/>
	<path class="st2" d="M313.6,227.9c0.1-0.1,0.1-0.3,0.2-0.4l-0.1,0.2L313.6,227.9z"/>
	<path class="st2" d="M304.3,236.4c0,0,0-0.1,0.1-0.1C304.3,236.3,304.3,236.4,304.3,236.4z"/>
	<path class="st2" d="M285.9,238.3l0.9,0.1l0.5,0.9l-0.4,0.8C286.6,239.7,286.1,238.8,285.9,238.3z"/>
	<path class="st2" d="M309.2,238.4l0.9-0.1c-0.2,0.5-0.6,1.4-0.9,1.9l-0.5-0.8L309.2,238.4z"/>
	<path class="st2" d="M510.2,240.7l0.5-1.3c0.3,5.6,0.2,11.2-0.7,16.8C510.2,251,509.7,245.9,510.2,240.7z"/>
	<path class="st2" d="M287,241l0.9,0.2l0.4,1l-0.5,0.8C287.5,242.5,287.1,241.5,287,241z"/>
	<path class="st2" d="M5.3,245.1c0.7,1.8,1,3.8,0.7,5.8C4,250.6,4.7,246.6,5.3,245.1z"/>
	<path class="st2" d="M288.6,248.6c0.4-1,1.2-2.9,1.6-3.8l0.4,2c-2,4.2-4.5,8.2-6.6,12.4c9.7,0,19.3,0,29,0c2.3,0.1,4.6-0.3,6.8-0.6
		l-0.6,1.1c-0.4,0.7-0.9,1.5-1.3,2.2c0.8,0,2.4-0.1,3.2-0.1c0.3,0.2,0.8,0.5,1,0.7c-13.3-0.5-26.7-0.2-40-0.1
		c-20.9,38.4-42.1,76.6-63.1,114.9c-13.9,0-27.8,0-41.6,0c20.9-24.3,41.5-48.9,62.6-73c8-9.7,16.3-19.1,24.4-28.8
		c3.2-2.9,5.6-6.3,8.3-9.7c0.5-0.2,1.6-0.5,2.1-0.6c-0.2-2.5,2.2-3.9,3.4-5.7c1.3-1.4,2.2-3.7,4.3-3.9c-0.2-1.6,1.6-2.1,2.1-3.3
		C285.8,250.8,286.4,248.2,288.6,248.6z"/>
	<path class="st2" d="M85.5,260.9c0.8,1.8,0.7,3.8,0.6,5.8C84.3,265.9,84.2,262.3,85.5,260.9z"/>
	<path class="st2" d="M507.8,271.7c0.1-1.7,0-3.4,0.8-4.9C509.8,268,509.6,271.4,507.8,271.7z"/>
	<path class="st2" d="M9.3,269c0.7,0.9,0.9,1.9,0.7,3C8.5,271.5,8.3,270.5,9.3,269z"/>
	<path class="st2" d="M506.1,281.5c-0.3-1-0.2-1.9,0.6-2.7c0.2,0.4,0.6,1.3,0.8,1.8l-0.6,0.9L506.1,281.5z"/>
	<path class="st2" d="M89.2,284.9c0.2,0.5,0.6,1.4,0.8,1.9l-0.9-0.1l-0.4-0.9L89.2,284.9z"/>
	<path class="st2" d="M169.3,285l0.5-0.1c0.2,1.7,0.4,3.4,0.6,5.1c1.2,0.7,2.4,1.5,3.3,2.6c-1.4,0.8-3.2,0.9-4.2,2.2
		c0.1,0.8,0.2,2.4,0.2,3.2c-13.7,26.1-26.6,52.6-40,78.9c-10.2,0.1-20.3,0-30.5,0c18.6-20.9,37-42,55.7-62.9
		c4.5-4.1,7.6-9.5,12.4-13.3c-0.2-0.6-0.7-1.7-0.9-2.3c0.5-0.5,1-1,1.5-1.5C170.2,293.4,169.2,289,169.3,285z"/>
	<path class="st2" d="M503.9,290.6c-0.2-1.1,0-2,0.7-2.8C505.7,289.2,505.5,290.1,503.9,290.6z"/>
	<path class="st2" d="M90.1,289c0.2,0.5,0.7,1.4,0.9,1.9l-0.9-0.1l-0.5-0.9L90.1,289z"/>
	<path class="st2" d="M16.3,292.1c0.2,0.5,0.6,1.5,0.8,2l-0.9-0.2l-0.4-1L16.3,292.1z"/>
	<path class="st2" d="M91.2,292.9c0.2,0.5,0.7,1.4,0.9,1.9l-0.9-0.1l-0.5-1L91.2,292.9z"/>
	<path class="st2" d="M19.4,300l0.3,0.3l0,0.4C19.6,300.6,19.4,300.2,19.4,300z"/>
	<path class="st2" d="M419.6,312.5c3.2-3.7,6.7-7.1,10.5-10.2c-8.7,16.7-17.8,33.1-26.8,49.6c-2.8-3.7-6.8-6.7-9.1-10.6
		C402.6,331.7,411.2,322.1,419.6,312.5z"/>
	<path class="st2" d="M95.7,306l0.2,0.3l0,0.4C95.8,306.5,95.7,306.2,95.7,306z"/>
	<path class="st2" d="M22.3,307.1l0.2,0.3l0.1,0.3C22.5,307.5,22.4,307.2,22.3,307.1z"/>
	<path class="st2" d="M23.2,309.4c0,0,0.1,0.2,0.1,0.2C23.3,309.6,23.2,309.5,23.2,309.4z"/>
	<path class="st2" d="M24.2,311.2l0.2,0.2l0.1,0.3C24.4,311.6,24.3,311.3,24.2,311.2z"/>
	<path class="st2" d="M25.2,313.4c0,0.1,0.1,0.2,0.1,0.2C25.3,313.6,25.2,313.5,25.2,313.4z"/>
	<path class="st2" d="M26.2,315.1l0.4,0.3l0.1,0.5C26.6,315.6,26.4,315.3,26.2,315.1z"/>
	<path class="st2" d="M99.6,316.1l0.1,0.2l0.1,0.2C99.8,316.4,99.7,316.2,99.6,316.1z"/>
	<path class="st2" d="M494.1,318.4l0.2-0.3c0,0.2-0.2,0.5-0.2,0.6L494.1,318.4z"/>
	<path class="st2" d="M30.2,322.5c0,0.1,0.1,0.2,0.1,0.2C30.3,322.6,30.2,322.5,30.2,322.5z"/>
	<path class="st2" d="M31.2,324.2l0.2,0.2l0.1,0.3C31.5,324.6,31.3,324.3,31.2,324.2z"/>
	<path class="st2" d="M33.2,327.3l0.2,0.2l0.1,0.2C33.5,327.6,33.3,327.4,33.2,327.3z"/>
	<path class="st2" d="M36.2,332.3c0.1,0.1,0.2,0.2,0.2,0.3C36.4,332.5,36.3,332.4,36.2,332.3z"/>
	<path class="st2" d="M535.7,360.8c0,0,0.1-0.1,0.2-0.2C535.8,360.7,535.7,360.8,535.7,360.8z"/>
	<path class="st2" d="M58.8,360.4c2.5,2.1,4.9,4.5,7,7C62.8,365.9,60.2,363.3,58.8,360.4z"/>
</g>
<g id="_x23_fdbe01ff">
	<path class="st3" d="M265.8,24.6c7.8,12.7,14.7,25.9,22.2,38.8c-1.1,5-2.3,10-3.4,15c-3.9-2.3-7.5-4.8-11.3-7.3
		C271,55.6,268,40.2,265.8,24.6z"/>
	<path class="st3" d="M308.3,64.4c7.8-12.9,15.4-26,23.5-38.8c-2.7,15-5.6,30-8.6,45c-3.8,2.8-7.7,5.2-11.8,7.6
		C310.3,73.7,309.3,69.1,308.3,64.4z"/>
	<path class="st3" d="M180.4,29.4c1.1-0.8,2.2-1.5,3.3-2.4c3,2.8,6,5.6,7.9,9.3c4.4,8.2,7.5,17,10.9,25.6c-4.5,1.7-8.9,3.8-13.4,5.6
		c-3.4-9.2-7.6-18.3-9.5-28C178.9,36.2,179.3,32.7,180.4,29.4z"/>
	<path class="st3" d="M409.7,28.8c1.3-1.5,2.9,0.1,4.3,0.4c2.8,5.2,1.3,11.2-0.3,16.5c-2.4,7.4-5.1,14.8-8.2,21.9
		c-4.3-2.1-8.7-3.9-13.1-5.7c2.9-7.5,5.7-15.1,9.2-22.4C403.5,35.5,405.8,31.3,409.7,28.8z"/>
	<path class="st3" d="M203.5,37c0-2.7,0.3-6.5,3.4-7.2c2.5-0.1,4,2.4,5.1,4.4c3.3,7,4.6,14.7,6.6,22.2c-3.5,1.2-7.1,2.4-10.6,3.6
		C206.1,52.3,203.9,44.8,203.5,37z"/>
	<path class="st3" d="M383.2,33.2c1.1-1.9,3.2-4.5,5.7-3.1c2.3,1.4,2.3,4.5,2.4,6.8c-0.4,7.8-2.6,15.4-4.5,22.9
		c-3.5-1.2-7.1-2.4-10.7-3.6C378.1,48.6,379.5,40.4,383.2,33.2z"/>
	<path class="st3" d="M156.1,33.1c1.6-0.2,3.2-0.5,4.9-0.8c2.1,2.8,5,4.9,6.8,7.9c6.2,9.6,10.6,20.1,15.3,30.5
		c-5,2.4-9.9,5.2-14.7,8c-4.6-10.5-10.1-20.6-13.2-31.7C153.8,42.5,153.1,37.2,156.1,33.1z"/>
	<path class="st3" d="M436.5,32c4.9,1.9,4.6,7.9,3.8,12.2c-2.8,12.2-8.9,23.2-14,34.5c-4.8-2.9-9.6-5.6-14.7-8
		c3.7-8.3,7.4-16.5,11.6-24.4C426.5,40.6,430.1,34.4,436.5,32z"/>
	<path class="st3" d="M128.2,43c5.4-0.9,9.8,2.9,13.1,6.7c8.7,9.8,15,21.2,22.4,31.9c-1.5,1-3,1.9-4.5,2.9c0.4,0.3,1.3,0.9,1.8,1.2
		c-0.7-0.1-2-0.2-2.7-0.2c-3.2,2.2-6.9,4.1-9.3,7.3c-1.8-2.1-3.4-4.4-4.9-6.8c-6.3-10-13.4-19.8-17.3-31.1
		C125.3,50.9,125.6,46.5,128.2,43z"/>
	<path class="st3" d="M451.7,51.7c2.9-3.3,6-6.9,10.3-8.5c3.1-1.2,6.5,1.5,6.8,4.6c0.4,4.5-1.4,8.8-3.1,12.8
		c-5.4,11.3-12.7,21.6-19.5,32c-4.9-3.8-9.8-7.6-15.1-10.9C437.9,71.7,444,61.1,451.7,51.7z"/>
	<path class="st3" d="M925.4,53.5c16.3-2.5,34.2-0.6,48.1,9.1c10.7,7.3,17.8,19.3,19.8,32c2.1,13.9,0.4,29-7.7,40.8
		c-8.1,12.2-22.1,19.7-36.5,21.5c-15.7,2.1-32.7,0.1-46-8.9c-11.4-7.6-19-20.4-20.6-33.9c-1.9-14,0.4-29.1,9-40.7
		C899.3,62.4,912.1,55.7,925.4,53.5 M932.5,70.8c-7.8,1.2-15.4,5.2-20,11.7c-6.6,9.1-8.4,21.2-5.9,32c1.7,7.9,6,15.5,12.9,20
		c12.8,8.6,31.9,7.1,42.4-4.7c11.5-13.9,11.5-36.5-0.7-50C954,72.1,942.7,69,932.5,70.8z"/>
	<path class="st3" d="M680.6,96.6c7.7-14.3,15.3-28.8,23.8-42.6c19,33.6,36.9,67.8,54.1,102.3c-8.1-0.1-16.2,0-24.3,0
		c-1.8-4.3-3.9-8.6-5.8-12.9c-1.8-0.4-3.5-0.9-5.3-0.9c-12.7,0.1-25.4,0-38.1,0c-1.7,0.1-3.9-0.2-4.9,1.5c-2.4,3.9-3.9,8.2-5.9,12.3
		c-8.1,0-16.1,0-24.2,0C659.9,136.2,670.1,116.3,680.6,96.6 M702.2,96.3c-1.4,1.3-2,3.3-3,4.9c-3,6.3-6.7,12.4-9.5,18.8
		c-1.2,2.2,0.9,4.7,3.2,4.5c6.4,0.3,12.7,0,19.1,0.1c2.1-0.1,4.7,0.3,6.4-1.4c1.7-1.8-0.2-4.2-0.9-6c-3.5-6.5-6.8-13.2-10.2-19.8
		C706.4,95.5,703.9,95.3,702.2,96.3z"/>
	<path class="st3" d="M776,54c14.7,0,29.3,0,44,0c7.8,0.1,15.8,1.4,22.7,5.2c8.1,4.4,14.3,12.5,16,21.6c1.7,10.2,0.4,21.5-6.2,29.7
		c-2.3,3.3-6.5,5.1-7.4,9.3c8.3,11.8,16.4,23.8,23.6,36.4c-8.8,0-17.6,0-26.4,0c-8.1-15.9-18.6-30.3-29.4-44.4
		c6.9,0.5,14.9-0.7,19.1-6.9c6-9.1,5.1-23.7-4.4-30.2c-7.6-4.7-17-2.6-25.4-2.8c-3-0.3-3.4,2.9-3.3,5.1c0,26.4,0,52.8,0.1,79.2
		c-7.6,0.2-15.2,0.1-22.8,0.1C776,122.2,776,88.1,776,54z"/>
	<path class="st3" d="M1017,54c7.6,0,15.2,0,22.8,0c-0.1,21.3,0,42.7,0,64c-0.1,7.2,3.4,14.8,9.9,18.3c10,5.5,24,5,32.4-3.3
		c4-3.9,5.8-9.6,5.7-15c0-21.3,0-42.7,0-64c7.6,0,15.1,0,22.7,0c0.1,23.7,0,47.4,0,71c0.2,9.5-5.2,18.4-12.9,23.7
		c-10.9,7.6-24.7,9.4-37.6,8.9c-12.4-0.6-25.7-3.7-34.6-12.9c-5.5-5.3-8.4-13-8.3-20.7C1017,100.7,1017,77.3,1017,54z"/>
	<path class="st3" d="M1139.7,53.1c7.2,3.1,13.4,7.9,19.7,12.5c18.5,14,35.9,29.5,53.8,44.2c1.6,1.5,5.3,2.1,5.7-0.8
		c0.2-18.3-0.2-36.7-0.2-55c7.6,0,15.2-0.1,22.8,0.1c-0.1,34.3-0.1,68.7,0,103c-7-2.7-12.9-7.4-19-11.7
		c-16.9-12.7-32.8-26.6-49-40.1c-2.5-2-4.7-4.3-7.5-5.8c-2.9-0.5-4.3,2.9-4.1,5.3c-0.1,17.1,0.4,34.2,0.3,51.4
		c-7.5-0.1-15.1-0.1-22.6,0C1139.8,121.9,1139.7,87.5,1139.7,53.1z"/>
	<path class="st3" d="M1271.8,54c14.4,0,28.8,0,43.2,0c8.3,0.1,16.8,1.2,24.4,4.6c9.5,4.1,17.5,11.7,22.1,21
		c5.7,11.5,6.4,25,4.4,37.5c-2.5,15.4-13.2,29.3-27.8,35c-8.9,3.7-18.6,4.2-28.1,4.1c-12.8,0-25.5,0-38.3,0
		C1271.8,122.2,1271.7,88.1,1271.8,54 M1296.2,72.2c-1.7,0.7-1.6,3.2-1.7,4.8c0,18.3,0,36.7,0,55c0.1,1.8,0,3.8,1,5.5
		c2.5,1.5,5.7,0.9,8.5,1.1c6.7-0.3,13.7,0.7,20.2-1.3c7.3-2.2,12.9-8.3,15.8-15.2c3.4-8.5,4.1-18.2,2.1-27.1
		c-1.7-7.9-6-15.7-13.2-19.8c-6-3.6-13.1-3.5-19.8-3.3C1304.8,71.9,1300.4,71.2,1296.2,72.2z"/>
	<path class="st3" d="M486.6,59.6c2.8-1.7,6.2-1.6,9.4-2.1c3,5.1,1.7,11.4-1.2,16.3c-7.7,13.4-18.8,24.3-28.7,36
		c-1.3-1.1-3-3.8-3.7-0.7c1.2-3.3-2.6-5.1-4.9-6.6c-1.6-2.2-3.6-3.9-5.7-5.6c-0.5-0.1-1.5-0.3-2-0.4c7.8-8.8,15.2-17.8,23.5-26.1
		C477.4,66.3,481.6,62.4,486.6,59.6z"/>
	<path class="st3" d="M99.3,58.3c2.3-0.2,4.8-0.7,7,0.4c5.5,2.4,9.9,6.7,14.3,10.8c8.3,8.3,15.8,17.4,23.6,26.1
		c-5,4.9-10.6,9.2-15.4,14.3c-9.6-11.2-20.2-21.9-27.9-34.6C97.8,70.3,94.9,63.4,99.3,58.3z"/>
	<path class="st3" d="M68.8,80.7c5.2-2.9,11.3-0.3,16.2,2.2c14.7,8.3,26.9,20.1,40.2,30.4c-4.6,6.2-10.2,11.5-14.5,17.9
		c-10.8-8.8-21.8-17.4-31.8-27.3c-4.2-4.5-8.7-9.1-10.7-15.1C67.2,86.2,68.2,83.4,68.8,80.7z"/>
	<path class="st3" d="M504.3,86.3c5.6-3.4,11.8-7.6,18.7-6.7c2.1,0.2,3.7,2.3,3.8,4.3c1,6.2-3.4,11.4-7,15.9
		c-10.6,11.9-23.4,21.3-35.6,31.5c-4.6-6.2-9.6-12-14.6-17.9C481.1,104.3,492,94.4,504.3,86.3z"/>
	<path class="st3" d="M47.2,106.3c5.7,0.2,11.4,1.6,16.5,4.1c15.4,7.1,29.2,17,43.5,25.9c-4.6,7-8.8,14.3-12.4,21.8
		c-13.1-8.5-26.6-16.4-38.8-26.2c-4.7-3.9-9.5-8-12.3-13.5c-0.8-2.6-1.8-5.2-3.4-7.5C41.4,108.4,45.1,108.1,47.2,106.3z"/>
	<path class="st3" d="M519.4,116.3c8-4.3,16.3-9.4,25.6-9.8c3.3-0.3,5.9,1.7,8.3,3.6c-1.4,3-1,6.5-2.8,9.3
		c-3.8,6.4-9.8,11-15.6,15.5c-11.2,8.3-23.1,15.6-34.9,23.1c-3.2-5.1-5-11.1-9.2-15.6c-0.5-2.2-2-3.9-3.6-5.5
		C497.6,129.4,508.5,122.8,519.4,116.3z"/>
	<path class="st3" d="M385.9,129.2c7.6-2.1,15.2-3.8,23.1-4.8c-3,8.2-6.6,16.2-11.2,23.7c-7.6-0.9-14.8,2.1-22.3,3.1
		c2.9-6.7,6-13.4,8.5-20.3C384.7,130.4,385.3,129.8,385.9,129.2z"/>
	<path class="st3" d="M187.1,124.5c5.5,0.6,10.9,1.9,16.3,2.8c2.2,0.8,4.5,1.3,6.8,2c2.6,2.3,3.4,5.9,4.7,9
		c1.7,4.4,3.9,8.6,5.7,12.9c-7.7-1.6-15.6-2.8-23.2-4.6c-0.2-0.4-0.7-1.1-0.9-1.4C192.8,138.5,189.7,131.6,187.1,124.5z"/>
	<path class="st3" d="M22.3,145.4c7.1-4.9,16-2.8,23.8-0.8c16.1,4.6,31.4,11.5,46.9,17.8c-3.5,7.9-6.3,16.1-8.6,24.4
		c-13.4-5.5-27-10.6-40-17c-7.2-3.9-14.9-7.6-20-14.2C22,152.7,22.1,148.9,22.3,145.4z"/>
	<path class="st3" d="M553.1,143.5c5.5-1.4,11.3-1.4,16.8-0.2c1.6,1.9,3.1,4.2,3.4,6.7c-2.8,8.1-10.4,12.9-17.5,16.9
		c-14.6,7.9-30.2,13.7-45.6,19.9c-1.5-7-4.3-13.6-6.5-20.4c-0.3,0.1-0.8,0.2-1,0.3c0-1.5-0.3-3-0.6-4.5
		C519,155.6,535.4,147.6,553.1,143.5z"/>
	<path class="st3" d="M16,185.1c6.1-2.1,12.7-1.7,19-1.3c16.2,1.3,32,4.9,48,7.5c-1.7,8.5-3.3,17-3.9,25.7c-15.1-2.9-30.3-5-45.1-9
		c-7.2-2.2-14.8-4.3-20.5-9.4c-2.7-2.2-3.2-5.8-3.4-9C12,187.8,13.6,185.9,16,185.1z"/>
	<path class="st3" d="M551.1,184.6c8.9-1,18.2-2.2,26.9,0.2c2.8,0.4,4.1,3.6,7,3.6c-0.3,0.3-1,0.8-1.3,1.1c2.2,3.1-0.4,6.4-2.4,8.7
		c-4.5,4.4-10.7,6.4-16.5,8.4c-16.1,4.9-32.8,7.2-49.2,10.2c-0.7-8.6-2-17.1-4.1-25.4C524.7,188.9,537.8,186.4,551.1,184.6z"/>
	<path class="st3" d="M7.2,228.2c5.9-5.4,14.2-6.4,21.9-7c16.6-1.2,33.2,0.2,49.7,0.3c-0.5,8.6-0.7,17.3-0.3,26
		c-15.2-0.6-30.5-0.5-45.6-2.3c-9-1.3-19-2.5-25.5-9.6C7,233.1,7,230.7,7.2,228.2z"/>
	<path class="st3" d="M516.1,221.5c17.7,0,35.4-1.8,53,0.1c6.6,0.7,13.7,2,18.5,7c0.1,2.7,0.3,5.6-0.9,8.1c-7.2,6-16.9,7.5-25.9,8.6
		c-14.8,1.6-29.8,1.7-44.7,2.1C517,238.8,516.3,230.1,516.1,221.5z"/>
	<path class="st1" d="M642,247c128.7,0,257.3,0,386,0c0,3.3,0,6.7,0,10c-128.7,0-257.3,0-386,0C642,253.7,642,250.3,642,247z"/>
	<path class="st1" d="M1593,247c113.3,0,226.7,0,340,0v10c-113.3,0-226.7,0-340,0C1593,253.7,1593,250.3,1593,247z"/>
	<path class="st3" d="M64.9,254.5c4.6-0.4,9.2-1.6,13.8-1.5c0.8,7.8,1.6,15.6,2.9,23.3c-17.7,2-35.5,5.6-53.4,4.1
		c-4.8-0.7-11.4-1.9-12.8-7.4c-1.2-5.3,4.2-8.6,8.4-10.3C36.9,257.7,51.1,256.4,64.9,254.5z"/>
	<path class="st3" d="M516,252.7c14.4,2,28.8,3.3,43,6.4c6.6,1.7,13.8,3.1,18.8,8.1c2.1,1.9,1.6,4.9,1.7,7.5
		c-7.1,7.4-18.2,6.1-27.6,6.1c-13-0.6-25.9-2.9-38.8-4.3C514.3,268.5,515.4,260.6,516,252.7z"/>
	<path class="st3" d="M42.8,292.9c13-4.6,26.6-7.2,39.9-10.7c1.5,7.2,3.8,14.2,5.4,21.3c-15.6,3.4-31,8.4-47.1,9.2
		c-5.2,0-11.5-0.4-14.8-5c-0.8-2.5,0.7-5.2,2.3-7.1C32.5,296.8,37.8,294.8,42.8,292.9z"/>
	<path class="st3" d="M512,282.2c13.3,3.5,26.9,6.1,39.9,10.7c6.8,2.6,15.5,5.6,17.2,13.6c-3,5.9-10.3,6.4-16.2,6.2
		c-15.9-1-31.2-5.7-46.6-9.3C508.6,296.4,510.4,289.3,512,282.2z"/>
	<path class="st3" d="M52.9,327.9c11.6-7.9,24.9-12.6,37.5-18.6c2.3,6,4.8,11.9,7.5,17.8c-10.9,4.9-21.7,10.1-33.1,13.6
		c-4.8,1.5-9.8,2.4-14.8,1.6l0.6,1.4c-1.9-1.9-4.8-3.5-4.7-6.5C46,332.9,49.9,330.2,52.9,327.9z"/>
	<path class="st3" d="M500.8,316.7c2-2,2.4-5,3.6-7.4c10.9,5.2,22.2,9.4,32.6,15.6c3.7,2.2,7.5,4.5,10.2,8c2,2.5,2.3,6.2,0.3,8.7
		c-4.6,1.2-9.4,1.4-14,0.1c-12.8-3.3-24.6-9.3-36.6-14.6C498.3,323.6,500.5,320.4,500.8,316.7z"/>
	<path class="st3" d="M72,347.8c8.9-6.2,18.6-11.1,28.1-16.3c2.7,5,5.4,9.9,8.5,14.7c-12.7,6.8-25.1,15-39.5,17.5
		c-1.5-0.5-2.9-1-4.4-1.5c-0.5-0.8-1.1-1.6-1.6-2.3C63.2,354.4,67.9,350.8,72,347.8z"/>
	<path class="st3" d="M487.3,344.4c2.6-4.2,5-8.5,7.4-12.8c9.9,5.6,20.2,10.5,29.4,17.4c3.5,2.4,6,5.9,8.3,9.4
		c-0.6,1.5-1.2,3-1.7,4.5c-0.5,0.2-1.5,0.8-2,1c-12.4-0.5-23.2-7.1-33.9-12.6C491.8,349.5,489.7,346.8,487.3,344.4z"/>
	<path class="st3" d="M88.6,369.7c6.7-7.4,15.2-12.7,23.2-18.6c1.1,1.5,2.1,3,3.2,4.5c-6.8,7.4-13.5,14.9-20.2,22.5
		c-2.8-0.1-5.6-0.1-8.3-0.1C85.2,375,86.4,371.9,88.6,369.7z"/>
</g>
</svg>
